/* XPM */
static char * audio_s_xpm[] = {
"32 32 6 1",
" 	s None	c None",
".	c #808080",
"X	c white",
"o	c black",
"O	c #c0c0c0",
"+	c #ffff00",
"    ...................         ",
"    .XXXXXXXXXXXXXXXXX.o        ",
"    .XXXXXXXXXXXXXXXXX..o       ",
"    .XXXXXXXXXXXXXXXXX.O.o      ",
"    .XXXXXXXXXXXXXXXXX.XO.o     ",
"    .XXXXXXXXXXXXXXXXX.XXO.o    ",
"    .XXXXXXXXXXXXXXXXX.oooooo   ",
"    .XXooOXXXXXXXXXXXXXXXXXOo   ",
"    .XoOooXXXXXXXXXXXXXXXXXOo   ",
"    .o+o...XXXXXX.XXXXXXXXXOo   ",
"    o+..OO.OXXX..XXXXXXXXXXOo   ",
"   o+Xo+O+.OX..XXXXXXXXXXXXOo   ",
" oo+X+oO+O.O.XXXXXXXXXXXXXXOo   ",
"oXOX+XooO+.OOXXXXXXXXXXXXXXOo   ",
"o+.+++oOoX.OOXXXXXXXXXXXXXXOo   ",
"o+.O+Oo.o+.O.....XXXXXXXXXXOo   ",
"o..+O+oo+X.OOXXXXXXXXXXXXXXOo   ",
" oo.+Oo+X+.OOXXXXXXXXXXXXXXOo   ",
"   o.+oX+X.O.XXXXXXXXXXXXXXOo   ",
"    o...XO.OO..XXXXXXXXXXXXOo   ",
"    .o.oOO.OOXX..XXXXXXXXXXOo   ",
"    .Xo.ooOOOXXXX.XXXXXXXXXOo   ",
"    .XXoooOOOXXXXXXXXXXXXXXOo   ",
"    .XXXOOOOXXXXXXXXXXXXXXXOo   ",
"    .XXXXOOOXXXXXXXXXXXXXXXOo   ",
"    .XXXXXXXXXXXXXXXXXXXXXXOo   ",
"    .XXXXXXXXXXXXXXXXXXXXXXOo   ",
"    .XXXXXXXXXXXXXXXXXXXXXXOo   ",
"    .XXXXXXXXXXXXXXXXXXXXXXOo   ",
"    .XXXXXXXXXXXXXXXXXXXXXXOo   ",
"    .OOOOOOOOOOOOOOOOOOOOOOOo   ",
"    ooooooooooooooooooooooooo   "};
