/* XPM */
static char * barney_xpm[] = {
"32 32 8 1",
" 	c None",
".	c #000000",
"+	c #FFFFFF",
"@	c #A0522D",
"#	c #FFFF00",
"$	c #BEBEBE",
"%	c #708090",
"&	c #B22222",
"                                ",
"             ................   ",
"     +.... .@+++++##########..  ",
"     .+++...@###############@@@.",
"    .#+##++#.....@@@@#@@@@@@@@..",
"   .+++##+#@.++++........@@@..  ",
"  .########@@.++++..++++++..    ",
"  .@@.#@###@@.++++++.+++.++.$   ",
"  ....@@..@@..+++++.+.+.+.+.$$  ",
"   $$.@..+...++++++.+.+.+.+.$$  ",
"   $$...+++++++++++..+++.+++.$  ",
"   $$$.....++++++++++$$$$%.....+",
"   $$$.++++++++++++++++++++++++.",
"    $$.+++++++%%%%%++++++++++++.",
"   $$...+++++%+++++++.++++++++..",
"   $$.+.++++%++++++++...++++... ",
"  $$$.+++++%++..++++++.......$  ",
"$$$$$.++++%%++.++++++++..+++.$$ ",
"$$$$..++++%++.+..++++++++.++.$$ ",
"$$$$.+++++%++++.&.++++++++.++.$ ",
"$$$$.+++++%+++++.&&.......+++.$ ",
"$$.$.+++++%++++++.&&&&+++++++.$$",
"$$...++++++++++++++....++++++.$$",
"$..@.......+++++++++++.++++++.$$",
"$.@@@@.......++++++++.+++++++.$.",
"$.@@@@@@@@....++++++++++++++....",
"$.@@@@@@@@@@...+++++++++++...@@.",
".@@@@@@@@@@@@@...$+++++++...@@@.",
".@@@@@@@@@@@@@@@...++++++.@@@@@.",
"..@..@@@@@@@@@@@@...++++..@@@@@.",
"$...$..@@@@@@@.@@@...+++.@@@@@@ ",
" $$$$$..@@@@@. ..@@......@.@@@  "};
