/* XPM */
static char *bart2[]={
"32 32 10 1",
". c #000000",
"f c #000022",
"h c #33ccff",
"d c #9999ff",
"a c #ccccff",
"g c #ff0000",
"e c #ffcc00",
"# c #ffcc33",
"c c #ffcc66",
"b c #ffffff",
"................................",
"................................",
"..............#######...........",
"............#########...........",
"..........############..........",
"........##############..........",
".......###############..........",
".......################.........",
"......a.###############.........",
".....aa.################........",
"....aaa..#############..........",
"...aaaaa.########.....bbbb......",
"..aaaaaaa.######.bbbbb.bbbb.....",
"..bbbbbbb.#####.bbbbbbb.b.b.aaa.",
"..babababa.##c#.bbbbbbb.bbb.bbb.",
"..abababab.####.bb.bbbb....abad.",
"..babababab.#c#.bbbbbbb.###.abd.",
"..ababababa.####.bbbbb.####.bad.",
"..babababab..####.....##...babd.",
"..abababab.########e######.abad.",
"..babababa.################.abd.",
"..ababababa..###############.ad.",
"..bababababa.##..##########..bd.",
"..ababababab.#.ff..........abad.",
"..bababababa.#.gggf#.bababababd.",
"..ababababab.##.gggf#.babababad.",
"..babababab..###......ababababd.",
"..abababab.hh.#####.bababababad.",
"..bababab.hhhh......abababababd.",
"..ababab.hh.hhhhhhhh.ababababad.",
"..babab.hhhh.hhhhhhhh.ababababd.",
"................................"};
