/* XPM */
static char *bartt[]={
"32 32 11 1",
". c None",
"# c #000000",
"g c #000022",
"i c #33ccff",
"e c #9999ff",
"b c #ccccff",
"h c #ff0000",
"f c #ffcc00",
"a c #ffcc33",
"d c #ffcc66",
"c c #ffffff",
".............#.#.#.#.#..........",
"...........#.#########..........",
".........#.###aaaaaaa#..........",
".......#.###aaaaaaaaa#..........",
".......###aaaaaaaaaaaa#.........",
".....###aaaaaaaaaaaaaa#.........",
"......#aaaaaaaaaaaaaaa#.........",
"......#aaaaaaaaaaaaaaaa#........",
".....#b#aaaaaaaaaaaaaaa#........",
"....#bb#aaaaaaaaaaaaaaaa#.......",
"...#bbb##aaaaaaaaaaaaa####......",
"..#bbbbb#aaaaaaaa#####cccc#.....",
".#bbbbbbb#aaaaaa#ccccc#cccc####.",
".#ccccccc#aaaaa#ccccccc#c#c#bbb#",
".#cbcbcbcb#aada#ccccccc#ccc#ccc#",
".#bcbcbcbc#aaaa#cc#cccc####bcbe#",
".#cbcbcbcbc#ada#ccccccc#aaa#bce#",
".#bcbcbcbcb#aaaa#ccccc#aaaa#cbe#",
".#cbcbcbcbc##aaaa#####aa###cbce#",
".#bcbcbcbc#aaaaaaaafaaaaaa#bcbe#",
".#cbcbcbcb#aaaaaaaaaaaaaaaa#bce#",
".#bcbcbcbcb##aaaaaaaaaaaaaaa#be#",
".#cbcbcbcbcb#aa##aaaaaaaaaa##ce#",
".#bcbcbcbcbc#a#gg##########bcbe#",
".#cbcbcbcbcb#a#hhhga#cbcbcbcbce#",
".#bcbcbcbcbc#aa#hhhga#cbcbcbcbe#",
".#cbcbcbcbc##aaa######bcbcbcbce#",
".#bcbcbcbc#ii#aaaaa#cbcbcbcbcbe#",
".#cbcbcbc#iiii######bcbcbcbcbce#",
".#bcbcbc#ii#iiiiiiii#bcbcbcbcbe#",
".#cbcbc#iiii#iiiiiiii#bcbcbcbce#",
".###############################"};
