/* XPM */
static char * bart_xpm[] = {
"32 32 6 1",
" 	c None",
".	c #000000",
"+	c #FFFF00",
"@	c #FFFFFF",
"#	c #0000FF",
"$	c #FF0000",
"         ..   .   .    .        ",
"      .  .+. .+.  ..   ..       ",
"     .+. .+. .+.  .+.  .+.      ",
"     .+. .++.++. .++. ..+.      ",
"      .+.+++.+++.+++..++++.     ",
"      .+.+++.+++.++++.++...     ",
"      .++.+++++++++++++++.      ",
"      .++.+++++++++++++++.      ",
"       .+++++++++++++++++.      ",
"       .+++++++++++++++++.      ",
"       .+++++++++++++++++..     ",
"       .++++++++++++++++++..    ",
"       .+++++++++...+++++++.    ",
"      ..++++++++.@@@.++.....    ",
"     ....++++++.@@@@@..@@@..    ",
"     .+++++++++.@..@@.@..@@.    ",
"     .+.+++++++.@..@@.@..@@.    ",
"     .++.++++++.@@@@@.@@@@@.    ",
"     ...++.+++++.@@@.+.@@@.     ",
"      ....+++++++...++....      ",
"        .+++++++++++++++++.     ",
"        .+++++++++++++++++.     ",
"         .++++++++++++++++.     ",
"         .++++++++++++.....     ",
"      # .+++++++++++++++.       ",
"     ##.+++++++...+++++++.      ",
"    ###.++++++.$$$....++++.     ",
"    ##.#.+++++.$$$$  .....      ",
"    #####..++++....             ",
"    #######.+++++++..           ",
"    ########+....+++.#          ",
"    #############...#####       "};
