/* XPM */
static char * bear_xpm[] = {
"32 32 6 1",
" 	c None",
".	c #000000",
"+	c #FF0000",
"@	c #B22222",
"#	c #FFFFFF",
"$	c #708090",
"                                ",
"                     ...        ",
"                    ..+..       ",
"                    .....       ",
"                ....@@@..       ",
"               .@@#..@@@...   . ",
"              .#...#.@@@@@......",
"             .##.##.@@@@@@@.+++.",
"             ..#..#.@@@@@@@++.@.",
"          ........#.@@@@@@@@@...",
"   .......######.##.@@@@@@@@@$$.",
"  ...############..@@@@@@@@@@...",
"  ....##########.@@@@@.@@@@@@.  ",
"  ...############.@@@@@.@@@@@.  ",
"   .#############.@@@@@.@@@@@.  ",
"   .###.##.#######.@@@@@.@@@@.  ",
"   .#############.@@@@@@.@@@@.  ",
"   ..####.######..@@@@@@.@@@@.  ",
"    .###########.@@@@@@.@@@@@.  ",
"    ......#####..@@@@@@.@@@@..  ",
"     ..########.@@@@@@.@@@@@.   ",
"      ..#######.@@@@@@.@@@.@.   ",
"        .#####..@@@@@@.@@@@..   ",
"        ......@@@@@@@.@@@....   ",
"         .@@@@@@@@@@@.@@@@...   ",
"         .@@@@@@@@@@@@@@@.....  ",
"          .@@@@@@@@@@@@......   ",
"          .@@@@@@@@@@@@@@...... ",
"      .....@@@@@@@@@@@@@@@@@... ",
"    ...@@@.@@@@@@@@@@@@@@@@@... ",
"    ...@@.@@@@@@@@@@@@@@@@@@@...",
"    .@@@@@@@@@@@@@@@@@@@@@@@@@.."};
