/* XPM */
static char * book2_xpm[] = {
"32 32 4 1",
" 	c None",
".	c #000000",
"+	c #FFFFFF",
"@	c #00FFFF",
"                                ",
"                                ",
"                                ",
"                                ",
"         .             ..       ",
"      .++++..       .++++..     ",
"   ..++++++++.    .++++++++..   ",
" ..@.+++++++++. +.+++++++++.@.  ",
".@.@.+++.+.++++..++++.+.+++.@.@.",
".@.@.+.+++++.++..++.+++++.+.@.@.",
".@.@.+++.+.++++..++++.+.+++.@.@.",
".@.@.+.+++++.++..++.+++++.+.@.@.",
".@.@.+++.+.++++..++++.+.+++.@.@.",
".@.@.+.+++++.++..++.+++++.+.@.@.",
".@.@.+++.+.++++..++++.+.+++.@.@.",
".@.@.+.+++++.++..++.+++++.+.@.@.",
".@.@.+++.+.++++..++++.+.+++.@.@.",
".@.@.+.+++++.++..++.+++++.+.@.@.",
".@.@.+++.+.++++..++++.+.+++.@.@.",
".@.@.+.+++++.++..++.+++++.+.@.@.",
".@.@.+++.+.++++..++++.+.+++.@.@.",
".@.@.+.+++++.++..++.+++++.+.@.@.",
".@.@.++++++++++..++++++++++.@.@.",
".@.@.++++++++++..++++++++++.@.@.",
".@.@.+++.....++..++.....+++.@.@.",
".@.@.+..@@@@@.+..+.@@@@@..+.@.@.",
".@.@..@@@....@....@....@@@..@.@.",
".@..@@@@.    .@@@@.    .@@@@..@.",
".......       ....      ........",
"                                ",
"                                ",
"                                "};
