/* XPM */
static char * brute_xpm[] = {
"32 32 11 1",
" 	c None",
".	c #FFFFFF",
"+	c #000000",
"@	c #FF0000",
"#	c #800000",
"$	c #FFFF00",
"%	c #808080",
"&	c #808000",
"*	c #C0C0C0",
"=	c #800080",
"-	c #FF00FF",
"                                ",
"                                ",
"             .                  ",
"             +++++              ",
"             +@@##++++++    ++  ",
"             ++++++@@@@@#@@@#+  ",
"   +++++      +...+###@#@@@#++++",
"  +$$$$$++    +++$$++#@@#@@@@@@+",
" +$$......++++%%%+$$++###@@@@@@+",
" +$.........++%%%%+$$++##@@###@+",
" +$..........+%%%%%+$++########+",
" +$.....$....++%%%%+$&++#######+",
" +$$$..$$$....++%%+++&&+#######+",
"  ++$$$$$$&....++++++&&+@@######",
"  **+++++&&.....+++..&&+++@#####",
"   *****+&..........$&&++$+@@###",
"     ***+...........$$+++$++####",
"       *+..........$$+++.$.+####",
"       *+.........$$++++.$.+###+",
"        +.........$+++++.$++###+",
"        +..........+++++.$+#####",
"        +..........+++++$$&####+",
"        ++++++.........$$$&+##++",
"        **+&$..........$$$&+#+==",
"        **+$$..........$$&&++-==",
"        **+............$$&&++-==",
"       ****+..........$$&&++--==",
"      *****+.........$$&&++---==",
"     *****++.........$&&++---===",
"    ****++-++.......$$&++---====",
"   ***++=+--+&&$$$$$&&&+---=====",
"  ***++===+---++&&&&&++---======"};
