/* XPM */
static char * desktop_s_xpm[] = {
/* width height num_colors chars_per_pixel */
"32 32 9 1",
/* colors */
" 	s none	m none	c none",
".	c #008080",
"X	s iconColor1	m black	c black",
"o	c cyan",
"O	c #808080",
"+	c #c0c0c0",
"@	s iconColor2	m white	c white",
"#	c #808000",
"$	c yellow",
/* pixels */
"              ...X              ",
"              ...X              ",
"             .....XXX           ",
"             .o...XXXXX         ",
"             .o...X  XXXX       ",
"             .o...X   XXXXX     ",
"            ..o....X    XXXXX   ",
"           ..o......X     XXXXX ",
"          ..o........X      XXXX",
"          XXXXXXXXXXXX        XX",
"                             XXX",
"                            XXX ",
"                           XXX  ",
"                          XXX   ",
"                          XX    ",
"                          XX    ",
"    OOOOOOOOOOOOOOOOOOOOOOXXOOXX",
"    O+++OOOOOOO+++++++++++XXOOXX",
"   O+++O@@@@@@X++++##+++++++++XX",
"   O+++O@@@@@@X+++#$$#++++++++XX",
"  O+++O@@@@@@X++++#$$#++++++++XX",
"  O+++O@@@@@@X+++##$$####++++OXX",
" O+++O@@@@@@X+++#$$##$$$#X+++OXX",
" O+++O@@@@@@X+++#$$$$$$##X++OOXX",
"O+++XXXXXXXXX++++XXXXXXXX+++OXX ",
"O++++++++++++++++++++++++++OOXX ",
"O++++++++++++++++++++++++++OXX  ",
"O@@@@@@@@@@@@@@@@@@@@@@@@@OOXX  ",
"O@@@@@@@@@@@@@@@@@@@@@@@@@OXX   ",
"OOOOOOOOOOOOOOOOOOOOOOOOOOOXX   ",
"XXXXXXXXXXXXXXXXXXXXXXXXXXXX    ",
"XXXXXXXXXXXXXXXXXXXXXXXXXXXX    "};
