/* XPM */
static char * mini_dir_closed_xpm[] = {
"16 16 13 1",
" 	c None",
".	c #000000",
"+	c #BCA17D",
"@	c #837057",
"#	c #D2B48C",
"$	c #A99171",
"%	c #927D61",
"&	c #988265",
"*	c #CFB18A",
"=	c #B99E7B",
"-	c #B79D7A",
";	c #2F2F2F",
">	c #A58E6E",
"                ",
"                ",
"          ..    ",
"        ..+@.   ",
"  ... ..#++$.   ",
" .$#..###++$%.  ",
" .#..###++$$&.  ",
" ..##*##++$$&@. ",
"  .##*#++$$$&%. ",
"  .$##++$$$$@.. ",
"   .#=+$$$%..   ",
"   .$-$$%..     ",
"    ;>@..       ",
"    ...         ",
"                ",
"                "};
