	/* XPM */
	constant XPM_FLAG = {
	    "16 16 5 1",
	    ".        c #000000",
	    "+        c #C0C0C0",
	    "@        c #808080",
	    "#        c #FF0000",
	    "         c #FFFFFF",
	    "               .",
	    " ++++++++++++++.",
	    " +++++++++++++@.",
	    " +++++###.++++@.",
	    " +++#####.++++@.",
	    " +#######.++++@.",
	    " +#######.++++@.",
	    " +++#####.++++@.",
	    " +++++###.++++@.",
	    " ++++++...++++@.",
	    " ++++++...++++@.",
	    " ++++++...++++@.",
	    " +++++......++@.",
	    " +++.........+@.",
	    " +++++++++++++@.",
	    " @@@@@@@@@@@@@@."} )


