/* XPM */
static char * folder_32x32_xpm[] = {
"32 32 22 1",
" 	c None",
".	c #003333",
"+	c #4F637B",
"@	c #4C6078",
"#	c #4A5E76",
"$	c #485C73",
"%	c #465A71",
"&	c #44576F",
"*	c #42556C",
"=	c #3F536A",
"-	c #3D5067",
";	c #3B4E65",
">	c #394C63",
",	c #374A60",
"'	c #35475E",
")	c #33455B",
"!	c #304359",
"~	c #2E4157",
"{	c #2C3E54",
"]	c #2A3C52",
"^	c #283A4F",
"/	c #26384D",
"                                ",
"                                ",
"                                ",
"                                ",
"                                ",
"     ......................     ",
"     .++++++++++++++++++++.     ",
"     .@@@@@@@@@@@@@@@@@@@@.     ",
"     .####################.     ",
"     .$$$$$$$$$$$$$$$$$$$$.     ",
"     .%%%%%%%%%%%%%%%%%%%%.     ",
"     .&&&&&&&&&&&&&&&&&&&&.     ",
"     .********************.     ",
"     .====================.     ",
"     .--------------------.     ",
"     .;;;;;;;;;;;;;;;;;;;;.     ",
"     .>>>>>>>>>>>>>>>>>>>>.     ",
"     .,,,,,,,,,,,,,,,,,,,,.     ",
"     .''''''''''''''''''''.     ",
"     .)))))))))))))))))))).     ",
"     .!!!!!!!!!!!!!!!!!!!!.     ",
"     .~~~~~~~~~~~~~~~~~~~~.     ",
"     .{{{{{{{{{{{{{{{{{{{{.     ",
"     .]]]]]]]]]]]]]]]]]]]].     ",
"     .^^^^^^^^^^^^^^^^^^^^.     ",
"     .////////////////////.     ",
"     ......................     ",
"                                ",
"                                ",
"                                ",
"                                ",
"                                "};
