/* XPM */
static char * tb_thrash_full_xpm[] = {
"24 24 106 2",
"  	c None",
". 	c #080808",
"+ 	c #000000",
"@ 	c #252525",
"# 	c #A8BA9E",
"$ 	c #B4C1AB",
"% 	c #E1E7DD",
"& 	c #838A7D",
"* 	c #909F86",
"= 	c #484E43",
"- 	c #A0AD94",
"; 	c #9EAB91",
"> 	c #B6C4AD",
", 	c #BFCCB7",
"' 	c #A7B69B",
") 	c #BEC9B5",
"! 	c #656F5E",
"~ 	c #2B2E28",
"{ 	c #353931",
"] 	c #242622",
"^ 	c #9BAA8F",
"/ 	c #9AA78E",
"( 	c #98A58C",
"_ 	c #96A58D",
": 	c #D7DED2",
"< 	c #A4B398",
"[ 	c #A2B196",
"} 	c #A0B095",
"| 	c #97A38A",
"1 	c #7C9674",
"2 	c #B0C0AB",
"3 	c #CED6C8",
"4 	c #DAE1D6",
"5 	c #BBC4B1",
"6 	c #637354",
"7 	c #748C6B",
"8 	c #94AA8D",
"9 	c #8FA58A",
"0 	c #6F8668",
"a 	c #4D5A4B",
"b 	c #485245",
"c 	c #738B6E",
"d 	c #687B63",
"e 	c #5E6F5A",
"f 	c #576452",
"g 	c #FFFFFF",
"h 	c #687D63",
"i 	c #020202",
"j 	c #E6E6E6",
"k 	c #B9C6B4",
"l 	c #65785F",
"m 	c #728A6D",
"n 	c #4F5C4C",
"o 	c #6E8468",
"p 	c #C1C1C1",
"q 	c #929292",
"r 	c #EDEDED",
"s 	c #9BAD96",
"t 	c #525F4F",
"u 	c #6F6F6F",
"v 	c #AFAFAF",
"w 	c #E7E7E7",
"x 	c #B7C6B4",
"y 	c #9AAD96",
"z 	c #525F4E",
"A 	c #C3C3C3",
"B 	c #B7C5B4",
"C 	c #C7E0C7",
"D 	c #78B578",
"E 	c #9BC89B",
"F 	c #E4E4E4",
"G 	c #809A78",
"H 	c #A0B29A",
"I 	c #60725C",
"J 	c #5DA65D",
"K 	c #8DBA8D",
"L 	c #E5E5E5",
"M 	c #B1B1B1",
"N 	c #7D9775",
"O 	c #7A9472",
"P 	c #788F71",
"Q 	c #F9F9F9",
"R 	c #489B48",
"S 	c #6EAB6E",
"T 	c #BFBFBF",
"U 	c #F0F0F0",
"V 	c #F4F4F4",
"W 	c #539D53",
"X 	c #989898",
"Y 	c #EAEAEA",
"Z 	c #BAD3BA",
"` 	c #8AB88A",
" .	c #8AB78A",
"..	c #969696",
"+.	c #ECECEC",
"@.	c #6FAC6F",
"#.	c #549D54",
"$.	c #B2CCB2",
"%.	c #C2C2C2",
"&.	c #959595",
"*.	c #B8B8B8",
"=.	c #C5C5C5",
"-.	c #A6BFA6",
";.	c #D5D5D5",
">.	c #C9C9C9",
",.	c #BBBBBB",
"                                                ",
"                                                ",
"                                .               ",
"        + + + + + + + +       . .               ",
"    @ + # $ % & * = - ; + +                     ",
"  + > , ' ) ! ~ { ] ; ^ / ( +                   ",
"  + _ : ) < [ } - ; ^ / ( | .         .         ",
"  + 1 2 3 4 5 - ; ^ / ( 1 . .         . .       ",
"  + 6 7 8 9 9 1 1 0 + + a b +   +               ",
"    + @ c d d e f + g g + +   + g +             ",
"    + h @ @ @ . @ @ + g g i + j +               ",
"    + h k l . . m n o + p q r +                 ",
"    + h k l s t m n + g g u v + .               ",
"    + h k l s t m + g g g g w + . .             ",
"    + h x l y z m + g g g g w A + .             ",
"    + h B l y z + g C D E g w F + .     .       ",
"    + G H l y I + C J C g J K L M + . . .       ",
"      + N O P + Q R C g g D S L T + . . . . . . ",
"        + + + + U g g g g g V W T X + . . . .   ",
"              + Y D g g C g Z `  ...+ . . . .   ",
"              + F +.@.@.S #.$.` %.&.+ . . .     ",
"                + + *.=.-.;.>.,.&.+ . .         ",
"                    + + + + + + +               ",
"                                                "};
