/* XPM */
static char * Ghostview_s_xpm[] = {
"32 32 4 1",
" 	s None	c None",
".	c black",
"X	c white",
"o	c #808080",
"                                ",
"                                ",
"            ......              ",
"          ..XXXXXX..            ",
"         .XXXXXXXXXX.           ",
"        .XXXXXXXXXXXX.          ",
"        .XXXXXXXXXXXX.          ",
"       .XXXXXXXXXXXXXX.         ",
"       .XXX..XXXX..XXX.         ",
"    ....XX....XX....XX.         ",
"   .XXX.XXX..XXXX..XXX....      ",
"  .XXXXXXXXXXXXXXXXXXX.XXX.     ",
"  .XXXXXXXXXXXXXXXXXXXXXXXX.    ",
"  .XXXXXXXXXXXXXXXXXXXXXXXX.    ",
"   ..XXXXXXXXXXXXXXXXXXXXXX.    ",
"     .XXXXXXXXXXXXXXXXXX...     ",
"     ..XXXXXXXXXXXXXXXX.        ",
"      .XXXXXXXXXXXXXXXX.        ",
"      .XXXXXXXXXXXXXXXX.        ",
"      .XXXXXXXXXXXXXXXXo.       ",
"      .XXXXXXXXXXXXXXXXX.       ",
"      .XXXXXXXXXXXXXXXXXX.      ",
"      .XXXXXXXXXXXXXXXXXXX.     ",
"     .XXXXXXXXXXXXXXXXXXXXX.    ",
"     .XXXXXXXXXXXXXX.XXXXXXX.   ",
"    .XXXXXXX.XXXXXXX.XXXXXXX.   ",
"   .XXXXXXXX.XXXXXXX.XXXXXXX.   ",
"   .XXXXXXX...XXXXX...XXXXX.    ",
"   .XXXXXXX.  .....   .....     ",
"   ..XXXX..                     ",
"     ....                       ",
"                                "};
