/* XPM */
static char * image_xpm[] = {
"32 32 7 1",
" 	s None	c None",
".	c #808080",
"X	c white",
"o	c black",
"O	c #c0c0c0",
"+	c #000082078207",
"@	c cyan",
"    ...................         ",
"    .XXXXXXXXXXXXXXXXX.o        ",
"    .XXXXXXXXXXXXXXXXX..o       ",
"    .XXXXXXXXXXXXXXXXX.O.o      ",
"    .XXXXXXXXXXXXXXXXX.XO.o     ",
"    .XXXXXXXXXXXXXXXXX.XXO.o    ",
"    .XXXXXXXXXO+++XXXX.oooooo   ",
"    .XXXXXXXXOXXOo+XXXXXXXXOo   ",
"    .XXXXXXXX+XXO.o+XXXXXXXOo   ",
"    .XXXXXXXX+OO...+XXXXXXXOo   ",
"    .XXXXXXXX+o..X.+.XXXXXXOo   ",
"    .XXXXXXXXX+OXO+.oOXXXXXOo   ",
"    .XXXXXXXXXX+++.o.OXXXXXOo   ",
"    .XXXXOXXXXXX.oo..OXXXXXOo   ",
"    .XXX@+XXOXXXXO..OXXXXXXOo   ",
"    .XXX@+OO.OXXXXXXXXXXXXXOo   ",
"    .XX@@++...OXXXXXXXXXXXXOo   ",
"    .XX@@++O..OOXXXXXXXXXXXOo   ",
"    .X@@@+++Oo.OXXXOO..XXXXOo   ",
"    .O@@@++OOooOX+++++OOXXXOo   ",
"    .XO@@+OOoo.OX+++++O.XXXOo   ",
"    .XX.@OOoo..OO+++++OoOXXOo   ",
"    .XXX.Oo...OXO+++++Oo.XXOo   ",
"    .XXXX.O..OXX.+++++Oo.OXOo   ",
"    .XXXXXXXOXXX.OOOOO@o.OXOo   ",
"    .XXXXXXXXXXXXO.oooo..OXOo   ",
"    .XXXXXXXXXXXXXXO....OOXOo   ",
"    .XXXXXXXXXXXXXXXXOOOOXXOo   ",
"    .XXXXXXXXXXXXXXXXXXXXXXOo   ",
"    .XXXXXXXXXXXXXXXXXXXXXXOo   ",
"    .OOOOOOOOOOOOOOOOOOOOOOOo   ",
"    ooooooooooooooooooooooooo   "};
