/* XPM */
static char * win95_computer[] = {
"36 35 11 1",
"         c None   ",
"#        c #000000",
"=        c #008000",
"%        c #000080",
"         c #008080",
"+        c #C0C0C0",
".        c #808080",
"*        c #00FF00",
"&        c #0000FF",
"$        c #00FFFF",
"@        c #FFFFFF",
"                                    ",
"           ..................       ",
"          .++++++++++++++++@.#      ",
"         .@@@@@@@@@@@@@@@@@..#      ",
"        .@+++++++++++++++++..#      ",
"        .@+..............@+..#      ",
"        .@+#############.@+..#      ",
"        .@+#------------.@+..#      ",
"        .@+#-$######----.@+..#      ",
"        .@+#-$.@@@@#----.@+..#      ",
"        .@+#--.@%&&&&#--.@+..#      ",
"        .@+#--.@.@@@@#--.@+..#      ",
"        .@+#--##.@@@@#--.@+..#      ",
"        .@+#----.@@@@#--.@+..#      ",
"        .@+#--- ######--.@+..#      ",
"        .@+..............@+..#      ",
"        .@+@@@@@@@@@@@@@@@+..#      ",
"        .@+++++++++++++++++..#..    ",
"        ....................#..+#   ",
"        ####################..+.#   ",
"      .......................+..#   ",
"     .@@@@@@@@@@@@@@@@@@@@@@@...#   ",
"     .@++++++++++++++++++++++...#   ",
"     .@++++++++++..........++...#   ",
"     .@++**++++++##########++...#   ",
"     .@++==++++++++++++.+++++...#   ",
"     .@++++++++++++++++++++++...#   ",
"     ...#@.#@.#@.#@.#@.#@.#@#..#    ",
"    .@.#@.#@.#@.#@.#@.#@.#@..##     ",
"   .@.#..#..#..#..#..#..#....#      ",
"  .@@@@@@@@@@@@@@@@@@@@@@@+.#       ",
"  .+++++++++++++++++++++++.#        ",
"   ########################         ",
"                                    ",
"                                    "};

