/* XPM */
static char * recycle_full_xpm[] = {
"32 32 6 1",
" 	s None	c None",
".	c #808080",
"X	c white",
"o	c #c0c0c0",
"O	c black",
"+	c #008000",
"          ...  ..               ",
"       ...XXX..X.  ...          ",
"    ...XXX...XXX...XXX..        ",
"  ..XXX....XXXXX.XXXXXXX.       ",
" .XX...XX.X.XXXX.XXX..XX.       ",
" .X...XXX.X.oXXXX.X.XX.X.       ",
" .XX..XXX.XX.oXXX.o.XXX..       ",
" .ooXX..X.XXX.oXX..XXXXX...     ",
" .ooooXX..XXXX.oX.XXXXXXX.X..   ",
"  .oooooXX..XX.o.XXXXXXXoooXXO  ",
"  .oooooooXX...oo.XXXXXooooXXO  ",
"  .oooooooooXX..o.XXooooXXX..O  ",
"  .oooooooooooXX..oooXXX.....O  ",
"   .ooooooo.++ooXXXXX.......O   ",
"   .oooooo+++++o+oo.........O   ",
"   .oo++++ooo++++oo.........O   ",
"   .ooo+++oooo+++oo.........O   ",
"    .o++++ooo++++oo........O    ",
"    .o++o+ooooooooo........O    ",
"    .o++oooooooo+oo........O    ",
"    .o++oooo+ooo+oo........O    ",
"     .o+.oo++oo.+oo.......O     ",
"     .oo+o+++++++oo.......O     ",
"     .oooo.+++++ooo.......O     ",
"     ...ooo.+oooooo.......O     ",
"      OO..oo.oooooo......O      ",
"        OO..ooooooo......O      ",
"          OO..ooooo......O      ",
"            OO..ooo......O      ",
"              OO..o....OO       ",
"                OO...OO         ",
"                  OOO           "};
