/* XPM */
static char * recycle_empty_xpm[] = {
"32 32 6 1",
" 	s None	c None",
".	c #808080",
"X	c white",
"o	c black",
"O	c #c0c0c0",
"+	c #008000",
"          ...                   ",
"       ...X.X..                 ",
"    ...XXX.o.XX..               ",
"  ..XXX....o.OOXX..             ",
" .XX.......o..OOOXX..           ",
" .X........o..OOOOOXX..         ",
" .XX.......o...OOOOOOXX..       ",
" .OOXX.....o...OOOOOOOOXX..     ",
" .OOOOXX...o....OOOOOOOOOXX..   ",
"  .OOOOOXX.o....OOOOOOOOOOOXXo  ",
"  .OOOOOOOXX.....OOOOOOOOOOXXo  ",
"  .OOOOOOOOOXX...OOOOOOOXXX..o  ",
"  .OOOOOOOOOOOXX..OOOXXX.....o  ",
"   .OOOOOOO.++OOXXXXX.......o   ",
"   .OOOOOO+++++O+OO.........o   ",
"   .OO++++OOO++++OO.........o   ",
"   .OOO+++OOOO+++OO.........o   ",
"    .O++++OOO++++OO........o    ",
"    .O++O+OOOOOOOOO........o    ",
"    .O++OOOOOOOO+OO........o    ",
"    .O++OOOO+OOO+OO........o    ",
"     .O+.OO++OO.+OO.......o     ",
"     .OO+O+++++++OO.......o     ",
"     .OOOO.+++++OOO.......o     ",
"     ...OOO.+OOOOOO.......o     ",
"      oo..OO.OOOOOO......o      ",
"        oo..OOOOOOO......o      ",
"          oo..OOOOO......o      ",
"            oo..OOO......o      ",
"              oo..O....oo       ",
"                oo...oo         ",
"                  ooo           "};
