/* XPM */
static char * tb_revert_xpm[] = {
"24 24 62 1",
" 	c None",
".	c #000000",
"+	c #629DA8",
"@	c #2C3D42",
"#	c #A8C7CB",
"$	c #E9EEEF",
"%	c #C5D8DC",
"&	c #F0F2F3",
"*	c #F9F9F9",
"=	c #E5ECED",
"-	c #7AABB6",
";	c #B1CAD0",
">	c #F4F6F6",
",	c #80AFB9",
"'	c #212F32",
")	c #8DB6BE",
"!	c #D5E1E4",
"~	c #E9EEF0",
"{	c #647F82",
"]	c #EDF2F2",
"^	c #EBF0F1",
"/	c #F2F4F5",
"(	c #45676E",
"_	c #F1F3F4",
":	c #36575F",
"<	c #9EC2C7",
"[	c #294249",
"}	c #2E3B3D",
"|	c #385C64",
"1	c #A4ADAF",
"2	c #EDEDED",
"3	c #E9E9E9",
"4	c #45494A",
"5	c #CDD1D3",
"6	c #F2F2F2",
"7	c #EAEAEA",
"8	c #E6E6E6",
"9	c #AAB6B8",
"0	c #2B464D",
"a	c #18292D",
"b	c #5C8791",
"c	c #C2C8C9",
"d	c #F4F4F4",
"e	c #3B5055",
"f	c #D5DFE0",
"g	c #E3E3E3",
"h	c #DFDFDF",
"i	c #828C8D",
"j	c #1E2A2D",
"k	c #6DA4AE",
"l	c #DCE0E0",
"m	c #E5E5E5",
"n	c #B8B8B8",
"o	c #4B5C61",
"p	c #D6DCDD",
"q	c #ECECEC",
"r	c #A7B4B6",
"s	c #D9DBDC",
"t	c #7D8A8C",
"u	c #2B2B2B",
"v	c #E2E2E2",
"w	c #859597",
"                        ",
"      .                 ",
"     ..                 ",
"    ......              ",
"   .........  ..        ",
"    ..........+@.       ",
"     ..   ...#$+.       ",
"      . ..%...&+@.      ",
"      ..%#%*..*=+.      ",
"    ..-;%***..*>,'.     ",
"   .);!*****.***~+.     ",
"   .{)]****.****^+@.    ",
"    .#=*******/=+++.    ",
"    .(-]****_=++::+@.   ",
"     .<=**_=++[}|+:+.   ",
"     .(-^=++[1234+:+@.  ",
"      .)++:5667890+[a.  ",
"      .b-+cdef3ghi+'..  ",
"       .)+:6jklmno..    ",
"       .|++pqrstu.      ",
"        .0+:vw..        ",
"         .....          ",
"                        ",
"                        "};
