/* XPM */
static char * xpm[] = {
"220 60 24 1",
"+        c #000000",
"|        c #000080",
"(        c #0000FF",
"4        c #002080",
"2        c #0080FF",
"&        c #202000",
":        c #2080FF",
"%        c #404040",
"$        c #606000",
"^        c #800000",
"=        c #806000",
"[        c #808000",
".        c #808080",
"/        c #80FFFF",
"@        c #A0A080",
"3        c #C00000",
"*        c #C08000",
"         c #C0C0C0",
"1        c #C0FFFF",
"]        c #FF0000",
"{        c #FF8000",
"!        c #FFC000",
")        c #FFFF80",
"#        c #FFFFFF",
"                                                                       .+        ..      ..........                                                                                                                         ",
"                                                                      .@+        .#+     .########.+                ......                                  ....                          ...... ..                         ",
"                                                .......               .#.+      .#.+     .########. +           ....$#  @+$$$$                              .# .+           %            .##    .##    ...................+ ",
"                                               .###### +               . +      . +      .########.# +         .###$#@&&@.+@@@+                 .....        .# .+        .+            . &     @      . @@@@@@@@@@@@@@@@@+ ",
"         +                       .            .###    @@+              .#.+    .#.+      .##&&&..........      .##$####@@..+@@+               ..#### +        .. .+      .+      ....... & .   ..@@    .%%%%%%%%%%%%%%%%%%+ ",
"        .+                       .+          ...................+       . +    . +       .#####.########.+     .##++++++++++@@+       .     ..# @@@@#@+         ...+    .+       .####. & . ....+..    .################# + ",
"       .#+                       . +         .##################+       .#.+  .#.+       .##&&&.########. +    .#####     @@@@+       .+   .# @@++++@ @+          ..+  .+        .###. & & . ++++++    .##$$######$$##### + ",
"      .# +                       .  +        .#########      @@.+        . +  . +        .#####.########.# +   .####     @@@@@+       .#+ .# @++    . @+           ..+.+         .###&& # & +   +      .##$#+#+++#$#+#+++ + ",
"     .#  +.......+       .........   +       .#####%##      @@@.+        .#.+.#.+        .##&&&.##....# +++++  .###     @@@@@@+       .##+# @+      . @+            ..+          .###  ### +    +      .##+++#####+++#### + ",
"    .#          .+       .            +      .####%%%       @@.@+         . +. +         .#####.#####       +  .##     ........       .### @+       . @+           ..+.+         .##########    +      .################# + ",
"   .#           .+       .            .+     .###%%%%%    @@@.@.+         .#.+.+         .##&&&.##........  +  .##     .######.+      .## @+        . @+          ..+  .+        .##$$#$$$$$$$  +      .##$$######$$##### + ",
"    +.  .........+       ..........  .+      .#### %     @@@.@..+          . ++          .#####.########    +  .#    @@.######.#+     .#   @+       . @+         ..+    .+       .############  +      .##$#+#+++#$#+#+++ + ",
"     +. .+++++++++       +++++++++. .+       .###  %     @@.@.@.+          . @+          .##&&&.##........  +  .     @@.#$$$##$+++    .@@@@@@+     . @+         . +      .+      .##$$#$$$$$$$  +      .##+++#####+++#### + ",
"      +..+                       +..+        .##   %    @@.@.@..+       ... @+.....      .#####.#####       +  .    @@@.#######  +    +++++++++    . @+        .#.+       .+     .############  +      .################# + ",
"       +.+                       +.+         .#    %  @@@.@.@...+      .#  .+ . #  +     .     .##$$$$$$$$  +  .@@@@@@@.#$$$$$$$ +                . @+        .# +         .     .##$$ $$$$$$$  +      .##$$######$$##### + ",
"        ++                       ++          .#    %%%%%%%%%....+     .#++%@+ .#++%.+    ++++++.###         +   +++++++.######## +                . @+       .# .+          %    .############  +      .##$#+#+++#$#+#+++ + ",
"         +                       +           .#      @@.@.@.....+     . + %@+ . + %@+          .##$$$$$$$$  +          .#$$$$$$$ +                +++        . .+                .##%% %%%%%%%  +      .##+++#####+++#### + ",
"         #                                   .#     @@.@.@......+     . %%%.+ . %%%.+          .            +          .         +                           ..+             %   .#             +      .                  + ",
"                                             ++++++++++++++++++++      +@@.+   +@@.+           .            +          +++++++++++                            +                  .              +      ++++++++++++++++++++ ",
"                                                                        +++     +++            ++++++++++++++                                                                    ++++++++++++++++                           ",
"                                                                       .+        ..      ..........                                                                                                                         ",
"                                                                      .@+        .#+     .########.+                *****=                                  =33=                          [[[[[[ ::                         ",
"                                                $$$$$$$               .#.+      .#.+     .######)#.#+           $$$$*#))!+$$$$                              3{{]^           3            [######[//    (((((((((((((((((((+ ",
"                                               $#))))) +               . +      . +      .####)##).##+         $###*)!$$!=+[[[+                 :::::        3{{]^        3^            [#+##    ::    (::::::::::::::::::+ ",
"         +                       :            $#* * * *[+              .#.+    .#.+      .##444..........      $##*)!!!!!*=+[[+               :://///+        33{]^      3^      ......[#+ $   [[::    |||||||||||||||||||+ ",
"        :+                       :+          $$$$$$$$$$$$$$$$$$$+       . +    . +       .#####.########.+     $##++++++++++[[+       :     :://::::/:+         33]^    3^       .####[#+ $ $[[[+::    .################# + ",
"       :1+                       ::+         $))))))))))))))))))+       .#.+  .#.+       .##444.########.#+    $##### #  [ [[[+       :+   ://::++++:/:+          3]^  3^        .###[#+ + $ ++++++    .##::######::##### + ",
"      :1/+                       :1:+        $)!#!#!#!#!!!!!!*!*+        . +  . +        .#)#)#.######)#.##+   $#### #  [ [[[[+       :#+ ://:++    :/:+           3]^3^         .###++ # + + ) +      .##:#4#+++#:#4#+++ + ",
"     :1//+:::::::+       :::::::::1/:+       $)#!#!&!)!!!!*!*!**+        .#.+.#.+        .##444.##::::#)+++++  $### #  [ [[[[[+       :11+//:+      :/:+            3]^          .###  )#) + )# +      .##444#####444#### + ",
"    :1/:////////:+       :111111111:/:+      $)!#!&&&!!!!!!*!***+         . +. +         .#)##).###)##)#)   +  $## #  [........       :11//:+       :/:+           3]^]^         .####)#)#)#)#) +      .################# + ",
"   :1/:::::::::::+       :1::::::::::::+     $)#!&&&&&!!!!*!****+         .#.+.+         .##444.##::::::::# +  $# #  [ .######.+      :1//:+        :/:+          3]^  ]^        .##::#:::::::# +      .##::######::##### + ",
"    +::::::::::::+       :::::::::::::+      $)!#!#&!!!*!*!*!**[+          . ++          .###)#.##)#)#)#)#) +  $ #  [ [.#####).#+     :////:+       :/:+         3]^    ]^       .#)##)#)#)#)#) +      .##:#4#+++#:#4#+++ + ",
"     +:::+++++++++       +++++++++:::+       $)#!#!&!!!!*!******+          . @+          .#)444.#)((((((((# +  $#  [ [ .#((()#$+++    :::::::+     :/:+         3{^      ]^      .##((#(((((((# +      .##444#####444#### + ",
"      +::+                       +::+        $)!#!!&!*!*!****[*[+       ::: @+:::::      .##)#).##)#)#)#)#) +  $  [ [ [.#)#)#)#  +    +++++++++    :/:+        3{3^       ]^     .####)#)#)#)#) +      .################# + ",
"       +:+                       +:+         $)#!!!&!!*!****[*[*+      :/::2+ ::/:2+     .     .#)((((((((# +  $[[[[[[[.#((((((( +                :/:+        3{]^         ]     .#)((#(((((((# +      .##::######::##### + ",
"        ++                       ++          $)!!!!&&&&&&&&&*[*[+     :/44(2+ :/44(2+    ++++++.####)#)#)#) +   +++++++.#)#)#)#) +                :/:+       3{{3^          ]    .####)#)#)#)#) +      .##:#4#+++#:#4#+++ + ",
"         +                       +           $)!!!*!******[*[*[*+     ::4 (2+ ::4 (2+          .#)44444444# +          .#4444444 +                +++        3{]^                .##44#4444444# +      .##444#####444#### + ",
"                                             $)!!*!******[*[*[*[+     :2(((2+ :2(((2+          .##)#)#)#)#) +          .         +                           3]^             ]   .)#)#)#)#)#)#) +      .                  + ",
"                                             ++++++++++++++++++++      +222+   +222+           .            +          +++++++++++                            ^                  .              +      ++++++++++++++++++++ ",
"                                                                        +++     +++            ++++++++++++++                                                                    ++++++++++++++++                           ",
"                                                                                                                                                                                                                            ",
"                                                .......                                                                                                                                                                     ",
"                                               . #####..                             ++++++       ++++++                                              ++++++       +++++                                                    ",
"                                              . .........                          +++++++++    +++++++++                                           +++++++++     +++++++                                                   ",
"         .                       .           ....................                  ++     +++   ++     +++                                          ++     +++   +++   +++                                                  ",
"        ..#                      ..          .##################.#                         ++           ++                                                  ++   ++     ++                                                  ",
"       ...#                      ...         .#   ...............#                         ++           ++               ++      ++                         ++  ++     ++++                                                 ",
"      ....#                      ....        .# .................#                         ++           ++               +++    +++                         ++  ++     + ++                                                 ",
"     .............       .............       .# .................#                        ++           ++                 +++   ++                         ++   ++    ++ ++                                                 ",
"    ..............#      ..............      .#..................#                       ++           ++                   ++  ++                         ++    ++   ++  ++                                                 ",
"   ...............#      ...............     .#..................#                      ++           ++                     ++++                         ++     ++   +   ++                                                 ",
"    ..............#      ..............##    .#..................#                     ++           ++                      +++                         ++      ++  ++   ++                                                 ",
"     .............#      .............##     .#..................#                    ++           ++                        +++                       ++       ++ ++    ++                                                 ",
"      ....#########       #######....##      .#..................#                   ++           ++                        ++++                      ++        ++ +     ++                                                 ",
"       ...#                      ...##       .#..................#                  ++           ++                        ++  ++                    ++         ++++    +++                                                 ",
"        ..#                      ..##        .#..................#                 ++           ++                        ++    ++                  ++           ++     ++                                                  ",
"         .#                      .##         .#..................#                 ++           ++                       +++    +++                 ++           +++   +++                                                  ",
"          #                       #          ....................#                 ++++++++++   ++++++++++               ++      ++                 ++++++++++    +++++++                                                   ",
"                                              ####################                 ++++++++++   ++++++++++              ++        ++                ++++++++++     +++++                                                    ",
"                                                                                                                                                                                                                            "};
