/* XPM */
static char * settings_xpm[] = {
/* 63 pixmap
* width height ncolors chars_per_pixel */
"32 32 7 1",
/* colors */
" 	s None	m white	c None",
".	s s_gray	m white	c #808080",
"X	s s_white	m white	c white",
"o	s s_black	m black	c black",
"O	s s_darkgray	m black	c #c0c0c0",
"+	s s_darkyellow	m black	c #808000",
"@	s s_yellow	m white	c #ffff00",
/* pixels */
"    ...................         ",
"    .XXXXXXXXXXXXXXXXX.o        ",
"    .XXXXXXXXXXXXXXXXX..o       ",
"    .XXXXXXXXXXXXXXXXX.O.o      ",
"    .XXXXXXXXXXXXXXXXX.XO.o     ",
"    .XXXXXXXXXXXXXXXXX.XXO.o    ",
"    .XXXXXXXXXXXXXXXXX.oooooo   ",
"    .XXXXXXXXXXXXXXXXXXXXXXOo   ",
"    .XXXXXXXXXXXXXXXXXXXXXXOo   ",
"    .XXXXXXXX.XXXXXXXXXXXXXOo   ",
"    .XXXXX.XoXoXoXXXXXXXXXXOo   ",
"    .XXXX.OoX.ooXoXXXXXXXXXOo   ",
"    .XXXXoXXoXoXOoXXXXXXXXXOo   ",
"    .XXX.o.ooXoo.ooXXXXXXXXOo   ",
"    .XXXoOXXoooXXXoXXXXXXXXOo   ",
"    .XXXo.oX.XXoXO.XXoXXXXXOo   ",
"    .XXXXoO..Xo+ooXoo@oXXXXOo   ",
"    .XXXoX.oo.o@+.Xo@+oXXXXOo   ",
"    .XXXXooXooo+ooXooXooXXXOo   ",
"    .XXXXXXXXo+@XoooX@+oXXXOo   ",
"    .XXXXXXXXo+o@X@X@o+oXXXOo   ",
"    .XXXXXXXXXo@++Xo+@oXXXXOo   ",
"    .XXXXXXXXo@+oo@oo++oXXXOo   ",
"    .XXXXXXXXXooXo+oXooXXXXOo   ",
"    .XXXXXXXXXXXXoooXXXXXXXOo   ",
"    .XXXXXXXXXXXXXXXXXXXXXXOo   ",
"    .XXXXXXXXXXXXXXXXXXXXXXOo   ",
"    .XXXXXXXXXXXXXXXXXXXXXXOo   ",
"    .XXXXXXXXXXXXXXXXXXXXXXOo   ",
"    .XXXXXXXXXXXXXXXXXXXXXXOo   ",
"    .OOOOOOOOOOOOOOOOOOOOOOOo   ",
"    ooooooooooooooooooooooooo   "};
