/* XPM */
static char * srecycle_xpm[] = {
"32 32 7 1",
" 	s None	c None",
".	c #808080",
"X	c white",
"O	c black",
"+	c #000080",
"@	c #c0c0c0",
"#	c #008000",
"        .............           ",
"       ..XXXXXXXXXXX.           ",
"    ...X.XXXXXXXXXXX..          ",
"  ..XXX..XXXXXXXXXXX.X.         ",
" .XX.....XXXXXXXXXXXOOOO        ",
" .X......XX++++++++XX...O       ",
" .XX.....XXXXXXXXXXXXXXXO       ",
" .@@XX...XX+++++++++++XXO..     ",
" .@@@@XX@@XXXXXXXXXXXXXXOXX..   ",
"  .@@@@@XX@+++++++++++XXO@@XXO  ",
"  .@@@@@@@XX@@XXXXXXXXXXO@@XXO  ",
"  .@@@@@@@@@XX@+++++++@@XXX..O  ",
"  .@@@@@@@@@@@XX@@@@@XXX.....O  ",
"   .@@@@@@@.##@@XXXXX.......O   ",
"   .@@@@@@#####@#@@.........O   ",
"   .@@####@@@####@@.........O   ",
"   .@@@###@@@@###@@.........O   ",
"    .@####@@@####@@........O    ",
"    .@##@#@@@@@@@@@........O    ",
"    .@##@@@@@@@@#@@........O    ",
"    .@##@@@@#@@@#@@........O    ",
"     .@#.@@##@@.#@@.......O     ",
"     .@@#@#######@@.......O     ",
"     .@@@@.#####@@@.......O     ",
"     ...@@@.#@@@@@@.......O     ",
"      OO..@@.@@@@@@......O      ",
"        OO..@@@@@@@......O      ",
"          OO..@@@@@......O      ",
"            OO..@@@......O      ",
"              OO..@....OO       ",
"                OO...OO         ",
"                  OOO           "};
