/* XPM */
static char * tex_xpm[] = {
"32 32 5 1",
" 	s None	c None",
".	c #808080",
"X	c white",
"o	c black",
"O	c #c0c0c0",
"    ...................         ",
"    .XXXXXXXXXXXXXXXXX.o        ",
"    .XXXXXXXXXXXXXXXXX..o       ",
"    .XXXXXXXXXXXXXXXXX.O.o      ",
"    .XXXXXXXXXXXXXXXXX.XO.o     ",
"    .XXXXXXXXXXXXXXXXX.XXO.o    ",
"    .XXXXXXXXXXXXXXXXX.oooooo   ",
"    .XXXXXXXXXXXXXXXXXXXXXXOo   ",
"    .XXXXXXXXXXXXXXXXXXXXXXOo   ",
"    .XXXXXXXXXXXXXXXXXXXXXXOo   ",
"    .XXXXXXXXXXXXXXXXXXXXXXOo   ",
"    .XooooooooXXXXooooXoooXOo   ",
"    .Xo.OooO.oOXXXXooOOOoOOOo   ",
"    .XoOXooOXoOXXXXOooXoOOXOo   ",
"    .XXOXooOXXOXXXXX.ooXOXXOo   ",
"    .XXXXooOXXXXXXXXXooOXXXOo   ",
"    .XXXXooOooooooXXooo.XXXOo   ",
"    .XXXXooOXooOOoOOoOooOXXOo   ",
"    .XXXXooOXoo..XOoOXXooXXOo   ",
"    .XXXooooOooo.OoooOooooXOo   ",
"    .XXXXOOOOoo..OXOOOXOOOOOo   ",
"    .XXXXXXXXooOOoXXXXXXXXXOo   ",
"    .XXXXXXXooooooOXXXXXXXXOo   ",
"    .XXXXXXXXOOOOOOXXXXXXXXOo   ",
"    .XXXXXXXXXXXXXXXXXXXXXXOo   ",
"    .XXXXXXXXXXXXXXXXXXXXXXOo   ",
"    .XXXXXXXXXXXXXXXXXXXXXXOo   ",
"    .XXXXXXXXXXXXXXXXXXXXXXOo   ",
"    .XXXXXXXXXXXXXXXXXXXXXXOo   ",
"    .XXXXXXXXXXXXXXXXXXXXXXOo   ",
"    .OOOOOOOOOOOOOOOOOOOOOOOo   ",
"    ooooooooooooooooooooooooo   "};
