/* XPM */
static const char * xpm_data[] = {
"16 16 3 1",
"       c None",
".      c #000000",
"X      c #FFFFFF",
"                ",
"   ......       ",
"   .XXX.X.      ",
"   .XXX.XX.     ",
"   .XXX.XXX.    ",
"   .XXX.....    ",
"   .XXXXXXX.    ",
"   .XXXXXXX.    ",
"   .XXXXXXX.    ",
"   .XXXXXXX.    ",
"   .XXXXXXX.    ",
"   .XXXXXXX.    ",
"   .XXXXXXX.    ",
"   .........    ",
"                ",
"                "};
