/* XPM */
static char * tvtime_32x32_xpm[] = {
"32 32 11 1",
" 	c None",
".	c #CCCCCC",
"+	c #B2B2B2",
"@	c #999999",
"#	c #E5E5E5",
"$	c #4C4C4C",
"%	c #7F7F7F",
"&	c #333333",
"*	c #666667",
"=	c #FFFFFF",
"-	c #007F7F",
"                                ",
"                                ",
"                                ",
"                                ",
"    %@@@@@@@++..........%       ",
"    ..####=##=##=####..#*&      ",
"    ++@%@@@@@+++++..+...%&&     ",
"    ..%%%@@@+++....#+.+.%$&$    ",
"    +.@%@@++++...###....%&$&    ",
"    ++@@@@+++..#.#...++.%$&&    ",
"    +.@@+++....#.##...+.%&$&    ",
"    ++@@+++...#.##..+.++%$$&    ",
"    ++++++...###.#..+++.%&$&    ",
"    ++++...#.#.#....++++*$$$    ",
"    ++@....###.#...++++.*$$&    ",
"    +++..#.#.#...+++@+++*$$$    ",
"    @@+.##.#.#...+++@+++%$&$    ",
"    +++.#.##...+++@@@+++*$$$    ",
"    @@.##.#....++@@@%+@+*$$$    ",
"    @@+#.#...++++@@@%+++*&$$    ",
"    @@++....+++@@@%%@+@+-$$&    ",
"    ++++....+++@@%%-%+++*$$     ",
"    @++.+......#...+++++%$$     ",
"      +.++++......#..+@+*$&     ",
"          ...+++++...+++%$      ",
"               ...++@+++*       ",
"                                ",
"                                ",
"                                ",
"                                ",
"                                ",
"                                "};
