/* XPM */
static char * video_s_xpm[] = {
"32 32 7 1",
" 	s None	c None",
".	c #808080",
"X	c white",
"o	c black",
"O	c #c0c0c0",
"+	c yellow",
"@	c red",
"    ...................         ",
"    .XXXXXXXXXXXXXXXXX.o        ",
"    .XXXXXXXXXXXXXXXXX..o       ",
"    .XXXXXXXXXXXXXXXXX.O.o      ",
"    .XXXXXXXXXXXXXXXXX.XO.o     ",
"    .XXXXXXXXXXXXXXXXX.XXO.o    ",
"    .XXXXXXXXXXXXXXXXX.oooooo   ",
"    .XXXXXXXXXXXXXXXXXXXXXXOo   ",
"    .XXXXXXXXXXXXXXXXXXXXXXOo   ",
"    .XXXXXXXXXXXXXXXXXXXXXXOo   ",
"    .XXXXXXXXXXXXXXXXXXXXXXOo   ",
".   .XXXXXXXXXXXXXXXX.XXXXXOo   ",
".. .........XXXXXXXO..XXXXXOo   ",
".XoXXXXOoOO.oX..XO.X+.XOXXXOo   ",
".ooOOOOOoOO.o.XoO.X+O.OOXXXOo   ",
"o ooooooOOO.oXOo.O+O+.OOXXXOo   ",
"  .OOOOOOOO.oo.oO.O+O.OOXXXOo   ",
"  .@OOOOoOo.oOooOO.OO.OOXXXOo   ",
"  ..........oOOOOOO...OOXXXOo   ",
"  oooooooooooOOXOOXOO.OOXXXOo   ",
"    .OOOOOOOOOOXXXXXXOOOXXXOo   ",
"    .OOOOOOOOOOXXXXXXXXOXXXOo   ",
"    .XXXXXXXXXXXXXXXXXXXXXXOo   ",
"    .XXXXXXXXXXXXXXXXXXXXXXOo   ",
"    .XXXXXXXXXXXXXXXXXXXXXXOo   ",
"    .XXXXXXXXXXXXXXXXXXXXXXOo   ",
"    .XXXXXXXXXXXXXXXXXXXXXXOo   ",
"    .XXXXXXXXXXXXXXXXXXXXXXOo   ",
"    .XXXXXXXXXXXXXXXXXXXXXXOo   ",
"    .XXXXXXXXXXXXXXXXXXXXXXOo   ",
"    .OOOOOOOOOOOOOOOOOOOOOOOo   ",
"    ooooooooooooooooooooooooo   "};
