/* XPM */
static char * _001_star_butterfly_m_xpm[] = {
/* width height ncols cpp */
"32 32 13 2",
  /* Colors */
  "00 c #000000",
  "01 c #800000",
  "02 c #808000",
  "03 c #000080",
  "04 c #800080",
  "05 c #008080",
  "06 c #C0C0C0",
  "07 c #808080",
  "08 c #FFFF00",
  "09 c #FF00FF",
  "0A c #00FFFF",
  "0B c #FFFFFF",
  ".. s None c None",
  "..03030303......................................................",
  "0703060B030303..................................................",
  "0306070A060A0303................................................",
  "030903060907060407..............................................",
  "0306070A07090A040407............................................",
  "030903060A060706060407..07......................................",
  "0303030706060607060607..0307....................................",
  "0309060607060706080607..03......................................",
  "03030906060606080B080B07..03....................................",
  "030907060607060B07040807..0003........0307......................",
  "030709070707070807070B0607..070303030000........................",
  "..030707070709070708060707040607........03030303030307..........",
  "..0306070709070907060407040407040707060707060707040703030307....",
  "....0306070709070606070603070403060606060B08080807060A09060907..",
  "....0306040906070706070204040307070B07070B0B070B0A09070A070603..",
  "..0307040407060506060A040304020407060707080807080607090A070903..",
  "03060407060605070606070304030A07060606060B060806060A0A07030603..",
  "0307070407060707060B040303070606060709070707060607070707090103..",
  "030706070706060708070403040B06060709070907060606060707090107....",
  "0306030703060607080304030708060509070907060706060707070901......",
  "..070706070707060803030708070705060407070706070707070901........",
  "..0307000403070608030308060707070607040606070707090101..........",
  "..070706060702070708080607060606060404070303030401..............",
  "..04030505070205060707070707070607070303........................",
  "070500..030300....0507040703070707040703........................",
  "0300..............0302070404060306070603........................",
  "0000..............00030706030607060603..........................",
  "......................030607070303..............................",
  "......................000504....................................",
  "........................0507....................................",
  "......................0704......................................",
  "....................070007......................................",
};
