/* XPM */
static char * _002_text_document_m_xpm[]={
"32 32 7 1",
". c None",
"d c #000000",
"c c #0000ff",
"e c #00ffff",
"# c #808080",
"b c #c0c0c0",
"a c #ffffff",
"......####################......",
"......#aaaaaaaaaaaaaaaaa###.....",
"......#aaaaaaaaaaaaaaaaa#b##....",
"......#aaaaaaaaaaaaaaaaa#ab##...",
"......#aacccccccccccccaa#aab##..",
"......#aaaaaaaaaaaaaaaaa#aaab##.",
"......#aacccccccccccccaaddddddd.",
"......#aaaaaaaaaaaaaaaaaab####d.",
"......#aacccccccccccccaaaaaaabd.",
"......#aaaaaaaaaaaaaaaaaaaaaabd.",
"......#aaccccccccccccccccccaabd.",
"......#aaaaaaaaaaaaaaaaaaaaaabd.",
"......#aaccccccccccccccccccaabd.",
"......#aaaaaaaaaaaaaaaaaaaaaabd.",
"......#aacccccccccabbbbbbbbaabd.",
"......#aaaaaaaaaaaab#eeee#baabd.",
"......#aacccccccccabebabaebaabd.",
"......#aaaaaaaaaaaabeababebaabd.",
"......#aacccccccccabebabaebaabd.",
"......#aaaaaaaaaaaabeababebaabd.",
"......#aacccccccccabebabaebaabd.",
"......#aaaaaaaaaaaab#eeee#baabd.",
"......#aacccccccccabbbbbbbbaabd.",
"......#aaaaaaaaaaaaaaaaaaaaaabd.",
"......#aacccccccccccccccccaaabd.",
"......#aaaaaaaaaaaaaaaaaaaaaabd.",
"......#aacccccccccccaaaaaaaaabd.",
"......#aaaaaaaaaaaaaaaaaaaaaabd.",
"......#aaaaaaaaaaaaaaaaaaaaaabd.",
"......#aaaaaaaaaaaaaaaaaaaaaabd.",
"......#bbbbbbbbbbbbbbbbbbbbbbbd.",
"......ddddddddddddddddddddddddd."};
