/* XPM */
static char * _003_text_template_m_xpm[]={
"32 32 8 1",
". c None",
"c c #000000",
"e c #0000ff",
"f c #00ffff",
"# c #808080",
"b c #c0c0c0",
"a c #ffff00",
"d c #ffffff",
"......#########################.",
"......#abababababababababababac.",
"......#babababababababababababc.",
"......#abababababababababababac.",
"......########################c.",
"......#bbbbbbbbbbbbbbbbbbbbbbbc.",
"......#ddddddddddddddddddddddbc.",
"......#ddddddddddddddddddddddbc.",
"......#ddeeeeeeeeeeeeddddddddbc.",
"......#ddddddddddddddddddddddbc.",
"......#ddeeeeeeeeeeeeddddddddbc.",
"......#ddddddddddddddddddddddbc.",
"......#ddeeeeeeeeeeeeeeeeeeddbc.",
"......#ddddddddddddddddddddddbc.",
"......#ddeeeeeeeeeeeeeeeeddddbc.",
"......#ddddddddddddddddddddddbc.",
"......#ddeeeeeeeeeeedbbbbbbddbc.",
"......#ddddddddddddddb#ff#bddbc.",
"......#ddeeeeeeeeeeedbfbbfbddbc.",
"......#ddddddddddddddbfbbfbddbc.",
"......#ddeeeeeeeeeeedbfbbfbddbc.",
"......#ddddddddddddddb#ff#bddbc.",
"......#ddeeeeeeeeeeedbbbbbbddbc.",
"......#ddddddddddddddddddddddbc.",
"......#ddeeeeeeeeeeeeeeeeedddbc.",
"......#ddddddddddddddddddddddbc.",
"......#ddeeeeeeeeeeeeeeeeeeddbc.",
"......#ddddddddddddddddddddddbc.",
"......#ddeeeeeeeeeeedddddddddbc.",
"......#ddddddddddddddddddddddbc.",
"......#bbbbbbbbbbbbbbbbbbbbbbbc.",
"......ccccccccccccccccccccccccc."};
