/* XPM */
static char * _004_spreadsheet_document_m_xpm[]={
"32 32 8 1",
". c None",
"c c #000000",
"d c #000080",
"f c #0000ff",
"e c #800080",
"# c #808080",
"b c #c0c0c0",
"a c #ffffff",
"......####################......",
"......#aaaaaaaaaaaaaaaaa###.....",
"......#aaaaaaaaaaaaaaaaa#b##....",
"......#aaaaaaaaaaaaaaaaa#ab##...",
"......#aabbbbbbbbbbbbbbb#aab##..",
"......#aab####b######b###aaab##.",
"......#aabbbbbbbbbbbbbbbccccccc.",
"......#aab####baaaaaabaaab####c.",
"......#aabbbbbbbbbbbbbbbbbbbabc.",
"......#aab####baaaaaabaaaaababc.",
"......#aabbbbbbbbbbbbbbbbbbbabc.",
"......#aab####baaaaaabaaaaababc.",
"......#aabbbbbbbbbbbbbbbbbbbabc.",
"......#aab####baaaaaabaaaaababc.",
"......#aabbbbbbbbbbbbbbbbbbbabc.",
"......#aab####baaaaaabaaaaababc.",
"......#aabbbbbbbbbbbbbbbbbbbabc.",
"......#aab####baaaaaabaaaaababc.",
"......#aabbbbbbbbbbbbbbbbbbbabc.",
"......#aab####baaaaaabaadddbabc.",
"......#aabbbbbbbbbbbbbbbdddbabc.",
"......#aab####baaaaaabaadddbabc.",
"......#aabbbbbbbbbbbbeeedddbabc.",
"......#aab####baaaaaaeeedddbabc.",
"......#aabbbbbbbbbcfceeedddbabc.",
"......#aab####baaafcfeeedddbabc.",
"......#aabbbbbbfffcfceeedddbabc.",
"......#aab####bffffcfeeedddbabc.",
"......#aabbbbbbbbbbbbbbbbbbbabc.",
"......#aaaaaaaaaaaaaaaaaaaaaabc.",
"......#bbbbbbbbbbbbbbbbbbbbbbbc.",
"......ccccccccccccccccccccccccc."};
