/* XPM */
static char * _005_spreadsheet_template_m_xpm[]={
"32 32 9 1",
". c None",
"c c #000000",
"e c #000080",
"g c #0000ff",
"f c #800080",
"# c #808080",
"b c #c0c0c0",
"a c #ffff00",
"d c #ffffff",
"......#########################.",
"......#abababababababababababac.",
"......#babababababababababababc.",
"......#abababababababababababac.",
"......########################c.",
"......#bbbbbbbbbbbbbbbbbbbbbbbc.",
"......#ddddddddddddddddddddddbc.",
"......#ddddddddddddddddddddddbc.",
"......#ddbbbbbbbbbbbbbbbbbbbdbc.",
"......#ddb####b######b#####bdbc.",
"......#ddbbbbbbbbbbbbbbbbbbbdbc.",
"......#ddb####bddddddbdddddbdbc.",
"......#ddbbbbbbbbbbbbbbbbbbbdbc.",
"......#ddb####bddddddbdddddbdbc.",
"......#ddbbbbbbbbbbbbbbbbbbbdbc.",
"......#ddb####bddddddbdddddbdbc.",
"......#ddbbbbbbbbbbbbbbbbbbbdbc.",
"......#ddb####bddddddbdddddbdbc.",
"......#ddbbbbbbbbbbbbbbbbbbbdbc.",
"......#ddb####bddddddbddeeebdbc.",
"......#ddbbbbbbbbbbbbbbbeeebdbc.",
"......#ddb####bddddddbddeeebdbc.",
"......#ddbbbbbbbbbbbbfffeeebdbc.",
"......#ddb####bddddddfffeeebdbc.",
"......#ddbbbbbbbbbcgcfffeeebdbc.",
"......#ddb####bdddgcgfffeeebdbc.",
"......#ddbbbbbbgggcgcfffeeebdbc.",
"......#ddb####bggggcgfffeeebdbc.",
"......#ddbbbbbbbbbbbbbbbbbbbdbc.",
"......#ddddddddddddddddddddddbc.",
"......#bbbbbbbbbbbbbbbbbbbbbbbc.",
"......ccccccccccccccccccccccccc."};
