/* XPM */
static char * _006_drawing_document_m_xpm[]={
"32 32 11 1",
". c None",
"c c #000000",
"e c #000080",
"f c #0000ff",
"i c #008000",
"d c #00ffff",
"h c #808000",
"# c #808080",
"b c #c0c0c0",
"g c #ffff00",
"a c #ffffff",
"......####################......",
"......#aaaaaaaaaaaaaaaaa###.....",
"......#aaaaaaaaaaaaaaaaa#b##....",
"......#aaaaaaaaaaaaaaaaa#ab##...",
"......#aaacbbbbbbbcbbbbb#aab##..",
"......#aaabaaaaaaaaaaaaa#aaab##.",
"......#aaabaaaaaaaaaaaaaccccccc.",
"......#aaabaaaaaaaaaaaaaab####c.",
"......#aaabaaaaaaaaaaaaaaabaabc.",
"......#aaabaaaaaaaaaaaaaaabaabc.",
"......#aaabaaaaaaaaaaaadaabaabc.",
"......#aaabaaaaaaaaaaaaaabbaabc.",
"......#aaabaaaaaaaaaadaaba#aabc.",
"......#aaabaaaaaaaaaaaaef#caabc.",
"......#aaabaaaaaaaaadaefecbaabc.",
"......#aaabaaaaaaaaaaefecabaabc.",
"......#aaabaaaaaaadaefecaacaabc.",
"......#aaabaaaaaaaaefecadabaabc.",
"......#aaabaaaadaaefecaaaabaabc.",
"......#aaabaaaaaaefecadadabaabc.",
"......#aaabaadaaefecaaaaaabaabc.",
"......#aaabaaaaefecaadadaabaabc.",
"......#aaabdaaefecaaaaaaaabaabc.",
"......#aaabaaggecaaadadadabaabc.",
"......#aaababghcaadaaaaaaabaabc.",
"......#aaabaghiadaaadadadabaabc.",
"......#aaabcbaaaaaaaaaaaaabaabc.",
"......#aaacbbbbbbbcbbbbbbbcaabc.",
"......#aaaaaaaaaaaaaaaaaaaaaabc.",
"......#aaaaaaaaaaaaaaaaaaaaaabc.",
"......#bbbbbbbbbbbbbbbbbbbbbbbc.",
"......ccccccccccccccccccccccccc."};
