/* XPM */
static char * _007_drawing_template_m_xpm[]={
"32 32 11 1",
". c None",
"c c #000000",
"e c #000080",
"f c #0000ff",
"i c #008000",
"g c #00ffff",
"h c #808000",
"# c #808080",
"b c #c0c0c0",
"a c #ffff00",
"d c #ffffff",
"......#########################.",
"......#abababababababababababac.",
"......#babababababababababababc.",
"......#abababababababababababac.",
"......########################c.",
"......#bbbbbbbbbbbbbbbbbbbbbbbc.",
"......#ddddddddddddddddddddddbc.",
"......#ddddddddddddddddddddddbc.",
"......#dddcbbbbbbbcbbbbbbbcddbc.",
"......#dddbdddddddddddddddbddbc.",
"......#dddbdddddddddddddddbddbc.",
"......#dddbddddddddddddddbbddbc.",
"......#dddbdddddddddddddbd#ddbc.",
"......#dddbddddddddddddef#cddbc.",
"......#dddbdddddddddddefecbddbc.",
"......#dddbddddddddddefecdbddbc.",
"......#dddbdddddddgdefecddbddbc.",
"......#dddcddddddddefecdgdcddbc.",
"......#dddbddddgddefecddddbddbc.",
"......#dddbddddddefecdgdgdbddbc.",
"......#dddbddgddefecddddddbddbc.",
"......#dddbddddefecddgdgddbddbc.",
"......#dddbgddefecddddddddbddbc.",
"......#dddbddaaecdddgdgdgdbddbc.",
"......#dddbdbahcddgdddddddbddbc.",
"......#dddbdahidgdddgdgdgdbddbc.",
"......#dddbcbdddddddddddddbddbc.",
"......#dddcbbbbbbbcbbbbbbbcddbc.",
"......#ddddddddddddddddddddddbc.",
"......#ddddddddddddddddddddddbc.",
"......#bbbbbbbbbbbbbbbbbbbbbbbc.",
"......ccccccccccccccccccccccccc."};
