/* XPM */
static char * _008_presentation_document_m_xpm[]={
"32 32 9 1",
". c None",
"c c #000000",
"g c #0000ff",
"d c #008080",
"e c #800000",
"f c #800080",
"# c #808080",
"b c #c0c0c0",
"a c #ffffff",
"......####################......",
"......#aaaaaaaaaaaaaaaaa###.....",
"......#aaaaaaaaaaaaaaaaa#b##....",
"......#aaaaaaaaaaaaaaaaa#ab##...",
"......#aaaaaaaaaaaaaaaaa#aab##..",
"......#aaaaaaaaaaaaaaaaa#aaab##.",
"......#abbbbbbbbbbbbbbbbccccccc.",
"......#ad#d#d#d#d#d#d#d#d#d###c.",
"......#a#e#e#e#e#e#e#e#e#e#eabc.",
"......#aacaaaaaaaaaaaaaaabcaabc.",
"......#aacaaaaaaaaaaaaaaabcaabc.",
"......#aacaeaeeeeaaaaaaaabcaabc.",
"......#aacaaaaaaaaaaaaaffbcaabc.",
"......#aacaeaeeeeeaaaaaffbcaabc.",
"......#aacaaaaaaaaaaacgffbcaabc.",
"......#aacaeaeeeeeaaagcffbcaabc.",
"......#aacaaaaaaaaaggcgffbcaabc.",
"......#aacaeaeeeeaagggcffbcaabc.",
"......#aacaaaaaaaaaaaaaaabcaabc.",
"......#aacbbbbbbbbbbbbbbbbcaabc.",
"......#aaccccccccccccccccccaabc.",
"......#aaaaaaaaabccbaaaaaaaaabc.",
"......#aaaaaaaaacbbcaaaaaaaaabc.",
"......#aaaaaaaabcaacbaaaaaaaabc.",
"......#aaaaaaaacbaabcaaaaaaaabc.",
"......#aaaaaaabcaaaacbaaaaaaabc.",
"......#aaaaaaacbaaaabcaaaaaaabc.",
"......#aaaaaaaaaaaaaaaaaaaaaabc.",
"......#aaaaaaaaaaaaaaaaaaaaaabc.",
"......#aaaaaaaaaaaaaaaaaaaaaabc.",
"......#bbbbbbbbbbbbbbbbbbbbbbbc.",
"......ccccccccccccccccccccccccc."};
