/* XPM */
static char * _009_presentation_template_m_xpm[]={
"32 32 10 1",
". c None",
"c c #000000",
"h c #0000ff",
"e c #008080",
"f c #800000",
"g c #800080",
"# c #808080",
"b c #c0c0c0",
"a c #ffff00",
"d c #ffffff",
"......#########################.",
"......#abababababababababababac.",
"......#babababababababababababc.",
"......#abababababababababababac.",
"......########################c.",
"......#bbbbbbbbbbbbbbbbbbbbbbbc.",
"......#ddddddddddddddddddddddbc.",
"......#ddddddddddddddddddddddbc.",
"......#ddbbbbbbbbbbbbbbbbbbbbbc.",
"......#dde#e#e#e#e#e#e#e#e#e#bc.",
"......#dd#f#f#f#f#f#f#f#f#f#fbc.",
"......#dddcdddddddddddddddbcdbc.",
"......#dddcdddddddddddddddbcdbc.",
"......#dddcdfdffffddddddddbcdbc.",
"......#dddcdddddddddddddggbcdbc.",
"......#dddcdfdfffffdddddggbcdbc.",
"......#dddcdddddddddddchggbcdbc.",
"......#dddcdfdfffffdddhcggbcdbc.",
"......#dddcdddddddddhhchggbcdbc.",
"......#dddcdfdffffddhhhcggbcdbc.",
"......#dddcdddddddddddddddbcdbc.",
"......#dddcbbbbbbbbbbbbbbbbcdbc.",
"......#dddccccccccccccccccccdbc.",
"......#ddddddddddbccbddddddddbc.",
"......#ddddddddddcbbcddddddddbc.",
"......#dddddddddbcddcbdddddddbc.",
"......#dddddddddcbddbcdddddddbc.",
"......#ddddddddbcddddcbddddddbc.",
"......#ddddddddcbddddbcddddddbc.",
"......#ddddddddddddddddddddddbc.",
"......#bbbbbbbbbbbbbbbbbbbbbbbc.",
"......ccccccccccccccccccccccccc."};
