/* XPM */
static char * _010_presentation_compressed_m_xpm[]={
"32 32 10 1",
". c None",
"c c #000000",
"h c #000080",
"g c #0000ff",
"d c #008080",
"e c #800000",
"f c #800080",
"# c #808080",
"b c #c0c0c0",
"a c #ffffff",
"......####################......",
"......#aaaaaaaaaaaaaaaaa###.....",
"......#aaaaaaaaaaaaaaaaa#b##....",
"......#aaaaaaaaaaaaaaaaa#ab##...",
"......#aaaaaaaaaaaaaaaaa#aab##..",
"......#aaaaaaaaaaaaaaaaa#aaab##.",
"......#aaaaaaaabccccccccccccccc.",
"......#aaaaaaaacbbbbbbbbb#cb##c.",
"......#acccccccccccccccccb#cabc.",
"......#acaaaaaaaaaaaaaabccccabc.",
"......#acaaaaaaaaaaaaaabacdbabc.",
"......#acaeeaeeaaaaaaaabadcbabc.",
"......#acaaaaaaaaaaaaffbacdbabc.",
"......#acaeaeeeeaaaaaffbadcbabc.",
"......#acaaaaaaaaaacgffbac#babc.",
"......#acaeaeeeeaaagcffbadcbabc.",
"......#acaaaaaaaaggcgffbacdbabc.",
"......#acaeaeeeaagggcffbadcbabc.",
"......#acaaaaaaaaaaaaaabac#babc.",
"......#acbbbbbbbbbbbbbbbccccabc.",
"......#acccccccccccccccccb#cabc.",
"......#aaaaaaaacbbbbbbbbb#cbabc.",
"......#aaaaaaaabccccccccccdaabc.",
"......#aaaaaaaaaaaaaaaaaadcaabc.",
"......#aaaaaaaaaaaaaaaaabcdbabc.",
"......#aaaaaaaaaaaaaaaach#chcbc.",
"......#aaaaaaaaaaaaaaaaccc#ccbc.",
"......#aaaaaaaaaaaaaaaaaaaaaabc.",
"......#aaaaaaaaaaaaaaaaaaaaaabc.",
"......#aaaaaaaaaaaaaaaaaaaaaabc.",
"......#bbbbbbbbbbbbbbbbbbbbbbbc.",
"......ccccccccccccccccccccccccc."};
