/* XPM */
static char * _011_global_document_m_xpm[]={
"32 32 9 1",
". c None",
"c c #000000",
"g c #000080",
"d c #0000ff",
"f c #00ffff",
"e c #800000",
"# c #808080",
"b c #c0c0c0",
"a c #ffffff",
"......####################......",
"......#aaaaaaaaaaaaaaaaa###.....",
"......#aaaaaaaaaaaaaaaaa#b##....",
"......#aaaaaaaaaaaaaaaaa#ab##...",
"......#aaaaaaaaaaaaaaaaa#aab##..",
"......#aaaaaaaaaaaaaaaaa#aaab##.",
"......#abbbbbbbbbaabbbbbccccccc.",
"......#abaaaaaaa#aabaaaaab####c.",
"......#abaddddda#aabaeaaaaa#abc.",
"......#abaaaaaaa#afbaeaeaaa#abc.",
"......#abaddddda#afbaebeada#abc.",
"......#abaaaaaaa#dgbaebebda#abc.",
"......#abaddddda#gdbaeeeeea#abc.",
"......#abaaaaaaa#dgbaaaaaaa#abc.",
"......#a#########gdb########abc.",
"......#aaaaaadgdgffgdgdaaaaaabc.",
"......#aaaaffgdgdffdgdgffaaaabc.",
"......#abbbbbbbbbgd########babc.",
"......#abaaaaaaa#dg#aaaaaaa#abc.",
"......#aba#bbb#a#gd#aggggaa#abc.",
"......#ababaaaba#dg#aaaaaaa#abc.",
"......#ababaaaba#af#aggggga#abc.",
"......#ababaaaba#af#aaaaaaa#abc.",
"......#aba#bbb#a#aa#aggggaa#abc.",
"......#abaaaaaaa#aa#aaaaaaa#abc.",
"......#ab########aab########abc.",
"......#aaaaaaaaaaaaaaaaaaaaaabc.",
"......#aaaaaaaaaaaaaaaaaaaaaabc.",
"......#aaaaaaaaaaaaaaaaaaaaaabc.",
"......#aaaaaaaaaaaaaaaaaaaaaabc.",
"......#bbbbbbbbbbbbbbbbbbbbbbbc.",
"......ccccccccccccccccccccccccc."};
