/* XPM */
static char * _012_html_document_m_xpm[]={
"32 32 10 1",
". c None",
"c c #000000",
"h c #000080",
"e c #0000ff",
"g c #008000",
"d c #00ff00",
"f c #808000",
"# c #808080",
"b c #c0c0c0",
"a c #ffffff",
"......####################......",
"......#aaaaaaaaaaaaaaaaa###.....",
"......#aaaaaaaaaaaaaaaaa#b##....",
"......#aaaaaaaaaaaaaaaaa#ab##...",
"......#aaaaaaaaaaaaaaaaa#aab##..",
"......#aaabbbbbbbbbbbbba#aaab##.",
"......#aaaaaaaaaaaaaaaaaccccccc.",
"......#aaabbbbbbbbbbbbbbab####c.",
"......#aaaaaaaaaaaaaaaaaaaaaabc.",
"......#aaabbbbbbbbbbbbbbbbbaabc.",
"......#aaaaaaaaaaaaaaaaaaaaaabc.",
"......#aaabbbbbb####bbbbbbbaabc.",
"......#aaaaaaa##abab##aaaaaaabc.",
"......#aaabbbb#daefdbcbbbbbaabc.",
"......#aaaaaa#dadedfdfcaaaaaabc.",
"......#aaabbbgadeeeefccbbbbaabc.",
"......#aaaaaaggeeeffehcaaaaaabc.",
"......#aaabbbgdgegbdhfcbbbbaabc.",
"......#aaaaaaagdgedfhcaaaaaaabc.",
"......#aaabbbbggchghccbbbbbaabc.",
"......#aaaaaaaabccccbaaaaaaaabc.",
"......#aaabbbbbbbbbbbbbbbbbaabc.",
"......#aaaaaaaaaaaaaaaaaaaaaabc.",
"......#aaabbbbbbbbbbbbbbbbbaabc.",
"......#aaaaaaaaaaaaaaaaaaaaaabc.",
"......#aaabbbbbbbbbbbbbbbbbaabc.",
"......#aaaaaaaaaaaaaaaaaaaaaabc.",
"......#aaabbbbbbbbbbbbbbbbbaabc.",
"......#aaaaaaaaaaaaaaaaaaaaaabc.",
"......#aaaaaaaaaaaaaaaaaaaaaabc.",
"......#bbbbbbbbbbbbbbbbbbbbbbbc.",
"......ccccccccccccccccccccccccc."};
