/* XPM */
static char * _013_chart_document_m_xpm[]={
"32 32 7 1",
". c None",
"d c #000000",
"b c #808000",
"# c #808080",
"c c #c0c0c0",
"e c #ffff00",
"a c #ffffff",
"......####################......",
"......#aaaaaaaaabaaaaaaa###.....",
"......#aaaaaaaabcbaaaaaa#c##....",
"......#aaaaaaabacabaaaaa#ac##...",
"......#aaaaaabadcaabaaaa#aac##..",
"......#aaaaabadedaaabaaa#aaac##.",
"......#aaaabadeeedcaabaaddddddd.",
"......#aaabadeeeeedaacbaa#####d.",
"......#aaabadaeee#daacabaaaaacd.",
"......#aaabadeae#bdcacaabaaaacd.",
"......#aaabadee#bbdaccaaabaaacd.",
"......#aaabadee#bbdaacaaaabaacd.",
"......#aaabcdee#bdedaccaaabaacd.",
"......#aaabadee#deeedcacaabaacd.",
"......#aaabadeedeeeeedaacabaacd.",
"......#aaabadeedaeee#daaacbaacd.",
"......#aaabadeedeae#bdcaaabaacd.",
"......#aaabcdeedee#bbdacaabaacd.",
"......#aaabacdedee#bbdaacabaacd.",
"......#aaaabacddee#bdedaacbaacd.",
"......#aaaaabacdee#deeedaabaacd.",
"......#aaaaaabacdedeeeeedabaacd.",
"......#aaaaaaabacddaeee#dabaacd.",
"......#aaaaaaaabacdeae#bdabaacd.",
"......#aaaaaaaaabacde#bdacbaacd.",
"......#aaaaaaaaaabacd#daabaaacd.",
"......#aaaaaaaaaaabacdaabaaaacd.",
"......#aaaaaaaaaaaabaaabaaaaacd.",
"......#aaaaaaaaaaaaababaaaaaacd.",
"......#aaaaaaaaaaaaaabaaaaaaacd.",
"......#cccccccccccccccccccccccd.",
"......ddddddddddddddddddddddddd."};
