/* XPM */
static char * _014_database_document_m_xpm[]={
"32 32 7 1",
". c None",
"c c #000000",
"e c #000080",
"d c #0000ff",
"# c #808080",
"b c #c0c0c0",
"a c #ffffff",
"......####################......",
"......#aaaaaaaaaaaaaaaaa###.....",
"......#aaaaaaaaaaaaaaaaa#b##....",
"......#aaaaaaaaaaaaaaaaa#ab##...",
"......#aaaaaaaaaaaaaaaaa#aab##..",
"......#aaaaaaaaaaaaaaaaa#aaab##.",
"......#aaaaaaaaaaaaaaaaaccccccc.",
"......#aaaaaaaabccccbaaaab####c.",
"......#aaaaaaabcbbb#cbaaaaaaabc.",
"......#aaaaaaacbaaaa#caaaaaaabc.",
"......#aaaaaaaccbb##ccccbaaaabc.",
"......#aaaaaaacbcccc#cb#cbaaabc.",
"......#aaaaaaac#bab##caa#caaabc.",
"......#aaaaaaacbaaab#c##ccaaabc.",
"......#aaaaaaac#bab##ccc#caaabc.",
"......#aacccbacbaaab#cb##caaabc.",
"......#aacddcac#bab##cab#caaabc.",
"......#aacddccccccaccbb##caaabc.",
"......#aacedcaaaaacc#aaa#c#aabc.",
"......#aacdecaccbbaacbabcbcaabc.",
"......#aacedcaaaccbbacccb#caabc.",
"......#aaceecbaaaaccccab#caaabc.",
"......#aacceccbbbaaaaa##caaaabc.",
"......#aacccbacc######ccaaaaabc.",
"......#aaaaaaaaaccccccaaaaaaabc.",
"......#aaaaaaaaaaaaaaaaaaaaaabc.",
"......#aaaaaaaaaaaaaaaaaaaaaabc.",
"......#aaaaaaaaaaaaaaaaaaaaaabc.",
"......#aaaaaaaaaaaaaaaaaaaaaabc.",
"......#aaaaaaaaaaaaaaaaaaaaaabc.",
"......#bbbbbbbbbbbbbbbbbbbbbbbc.",
"......ccccccccccccccccccccccccc."};
