/* XPM */
static char * _015_math_document_m_xpm[]={
"32 32 5 1",
". c None",
"c c #000000",
"# c #808080",
"b c #c0c0c0",
"a c #ffffff",
"......####################......",
"......#aaaaaaaaaaaaaaaaa###.....",
"......#aaaaaaaaaaaaaaaaa#b##....",
"......#aaaaaaaaaaaaaaaaa#ab##...",
"......#aaaaaaaaaaaaaaaaa#aab##..",
"......#aaabbbbbbbbbbbbbb#aaab##.",
"......#aaaaaaaaaaaaaaaaaccccccc.",
"......#aaabbbbbbbbbbbbbbbb####c.",
"......#aaaaaaaaaaaaaaaaaaaaaabc.",
"......#aaabbbbbbbbbbbbbbbbbaabc.",
"......#aaaaaaaaaaaaaaaaaaaaaabc.",
"......#aaaaaaacccccccccaaaaaabc.",
"......#aaaaaaaaccaaaa#caaaaaabc.",
"......#aaaaaaaaaccaaaacaaaaaabc.",
"......#aaaaaaaaaaccaaaaaaaaaabc.",
"......#aaaaaaaaaaaccaaaaaaaaabc.",
"......#aaaaaaaaaaccaaaaaaaaaabc.",
"......#aaaaaaaaaccaaaacaaaaaabc.",
"......#aaaaaaaaccaaaa#caaaaaabc.",
"......#aaaaaaacccccccccaaaaaabc.",
"......#aaaaaaaaaaaaaaaaaaaaaabc.",
"......#aaabbbbbbbbbbbbbbbbbaabc.",
"......#aaaaaaaaaaaaaaaaaaaaaabc.",
"......#aaabbbbbbbbbbbbbbbbbaabc.",
"......#aaaaaaaaaaaaaaaaaaaaaabc.",
"......#aaabbbbbbbbbbbbbbbbbaabc.",
"......#aaaaaaaaaaaaaaaaaaaaaabc.",
"......#aaaaaaaaaaaaaaaaaaaaaabc.",
"......#aaaaaaaaaaaaaaaaaaaaaabc.",
"......#aaaaaaaaaaaaaaaaaaaaaabc.",
"......#bbbbbbbbbbbbbbbbbbbbbbbc.",
"......ccccccccccccccccccccccccc."};
