/* XPM */
static char * _016_template_m_xpm[]={
"32 32 8 1",
". c None",
"c c #000000",
"f c #000080",
"e c #0000ff",
"# c #808080",
"b c #c0c0c0",
"a c #ffff00",
"d c #ffffff",
"......#########################.",
"......#abababababababababababac.",
"......#babababababababababababc.",
"......#abababababababababababac.",
"......########################c.",
"......#bbbbbbbbbbbbbbbbbbbbbbbc.",
"......#ddddddddddddddddddddddbc.",
"......#ddddddddddddddddddddddbc.",
"......#ddddddddddddddddddddddbc.",
"......#ddddddddddddddddddddddbc.",
"......#ddddddddddddddddddddddbc.",
"......#ddddddddddddddddddddddbc.",
"......#dddddddddddeddddddddddbc.",
"......#dddddddddddeddddddddddbc.",
"......#ddddddddeddeddedddddddbc.",
"......#dddddddddebfbeddddddddbc.",
"......#ddddddddddfffdddddddddbc.",
"......#ddddddeeeffbffeeedddddbc.",
"......#ddddddddddfffdddddddddbc.",
"......#dddddddddebfbeddddddddbc.",
"......#ddddddddeddeddedddddddbc.",
"......#dddddddddddeddddddddddbc.",
"......#dddddddddddeddddddddddbc.",
"......#ddddddddddddddddddddddbc.",
"......#ddddddddddddddddddddddbc.",
"......#ddddddddddddddddddddddbc.",
"......#ddddddddddddddddddddddbc.",
"......#ddddddddddddddddddddddbc.",
"......#ddddddddddddddddddddddbc.",
"......#ddddddddddddddddddddddbc.",
"......#bbbbbbbbbbbbbbbbbbbbbbbc.",
"......ccccccccccccccccccccccccc."};
