/* XPM */
static char * _017_macrolibrary_m_xpm[]={
"32 32 6 1",
". c None",
"c c #000000",
"d c #008080",
"# c #808080",
"b c #c0c0c0",
"a c #ffffff",
"......####################......",
"......#aaaaaaaaaaaaaaaaa###.....",
"......#aaaaaaaaaaaaaaaaa#b##....",
"......#aaaaaaaaaaaaaaaaa#ab##...",
"......#aaaaaaaaaaaaaaaaa#aab##..",
"......#aaaaaaaaaaaaaaaaa#aaab##.",
"......#aaa#############bccccccc.",
"......#aaaaaaaaaaaaaaaaaab####c.",
"......#aaa################aaabc.",
"......#aaaaaaaaaaaaaaaaaaaaaabc.",
"......#aaa################aaabc.",
"......#aaaaaaaaaaaaaaaaaaaaaabc.",
"......#aaaaaaaaa####aaaaaaaaabc.",
"......#aaaaaaa##cbc#ccaaaaaaabc.",
"......#aaaaaaa#bbbbb#caaaaaaabc.",
"......#aaaaaa##bdcdbcccaaaaaabc.",
"......#aaaaaa#bbcbcbb#caaaaaabc.",
"......#aaaaaa##bdcdbcccaaaaaabc.",
"......#aaaaaaa#bbbbb#caaaaaaabc.",
"......#aaaaaaac#cbc#ccaaaaaaabc.",
"......#aaaaaaaaaccccaaaaaaaaabc.",
"......#aaaaaaaaaaaaaaaaaaaaaabc.",
"......#aaa################aaabc.",
"......#aaaaaaaaaaaaaaaaaaaaaabc.",
"......#aaa################aaabc.",
"......#aaaaaaaaaaaaaaaaaaaaaabc.",
"......#aaa################aaabc.",
"......#aaaaaaaaaaaaaaaaaaaaaabc.",
"......#aaaaaaaaaaaaaaaaaaaaaabc.",
"......#aaaaaaaaaaaaaaaaaaaaaabc.",
"......#bbbbbbbbbbbbbbbbbbbbbbbc.",
"......ccccccccccccccccccccccccc."};
