/* XPM */
static char * _500_setup_m_xpm[] = {
/* width height ncols cpp */
"32 32 11 2",
  /* Colors */
  "00 c #000000",
  "01 c #000080",
  "02 c #008080",
  "03 c #C0C0C0",
  "04 c #808080",
  "05 c #00FF00",
  "06 c #FFFF00",
  "07 c #0000FF",
  "08 c #00FFFF",
  "09 c #FFFFFF",
  ".. s None c None",
  "............................04040404040404040404040404040404....",
  "..........................040909090909090909090909090909030400..",
  "..........................040901010101010101010101010109030400..",
  "..........................040901030303080908090803030109030400..",
  "..........................040901030308090809080303020109030400..",
  "..........................040901030809080908030302020109030400..",
  "..........................040901080908090803030202020109030400..",
  "..........................040901090809080303020202020109030400..",
  "................0404040404000901080908030302020202070109030400..",
  "..............040909090900040901090803030202020207070109030400..",
  "............04040404040000040901080303020202020707070109030400..",
  "..........0404040404000300040901010101010101010101010109030400..",
  "04040404040404040400030300040909090909090909090909090909030400..",
  "..040909090909040003030300040303030303030303030303030303030400..",
  "....040404040400030303030000000000000000000000000000000000000300",
  "....040404040400030303030004040404040404040404040404040404030400",
  "....040909090900030303030009090404040404040909090909090909090400",
  "....040909090900030303030004040606060303030000040404040403030400",
  "....040909090900030303030408080606060303090309000000000003030400",
  "....0409090909000304030405080808060603090309040300030303030300..",
  "....04090909090004030404030508080806090309040304000000000000....",
  "....040909090900030404080803050808060909040304030400............",
  "....040903090300040304030808030508000004030403040300............",
  "....040309030900030404030303080800....00040304030400............",
  "....040903090300040304040304030400....00080808030300............",
  "....040309030900030404030403040304000005030808080800............",
  "....040903090300040304040304030409030605030303080800............",
  "....0403090309000304000404030409030306050503030300..............",
  "....0409030903000400..0403040903090606050505030300..............",
  "....04030903090000......040903090303060605050500................",
  "....000000000000..........04040303060606050000..................",
  "..............................040404000000......................",
};
