/* XPM */
static char * _501_printeradmin_m_xpm[]={
"32 32 7 1",
". c None",
"c c #000000",
"e c #008080",
"# c #808080",
"b c #c0c0c0",
"a c #ffff00",
"d c #ffffff",
"......#########################.",
"......#abababababababababababac.",
"......#babababababababababababc.",
"......#abababababababababababac.",
"......########################c.",
"......#bbbbbbbbbbbbbbbbbbbbbbbc.",
"......#ddddddddddddddddddddddbc.",
"......#ddddddddddddddddddddddbc.",
"......#ddddddddddddddddddddddbc.",
"......#ddddddddddddd###ddddddbc.",
"......#dddddddddddd#ddd##ddddbc.",
"......#ddddddddddd#dddddd##ddbc.",
"......#dddddddddd#ddddddbcdddbc.",
"......#ddddddd###ddddddbc#dddbc.",
"......#ddddd##b#ddddddbcbb##dbc.",
"......#ddd##bbeccdddddcbb##cdbc.",
"......#dd#db##bbbccddcb##bbcdbc.",
"......#dd#d#d##bbbbcb##bb##cdbc.",
"......#dd#d#bdd##bb##bb####cdbc.",
"......#dd#d#bbbdd##bb#####ccdbc.",
"......#dd#d#bbbb#db#####cccbdbc.",
"......#ddd###bbb#b####cc#ccddbc.",
"......#dddccb##b#b##cc#ccbdddbc.",
"......#ddddbccb##bcc#ccbdddddbc.",
"......#ddddddbccb##ccbdddddddbc.",
"......#ddddddddbcccbdddddddddbc.",
"......#ddddddddddddddddddddddbc.",
"......#ddddddddddddddddddddddbc.",
"......#ddddddddddddddddddddddbc.",
"......#ddddddddddddddddddddddbc.",
"......#bbbbbbbbbbbbbbbbbbbbbbbc.",
"......ccccccccccccccccccccccccc."};
