/* XPM */
static char * ksirc2_xpm[] = {
"32 32 11 1",
" 	c None",
".	c #303030",
"+	c #00FF00",
"@	c #008200",
"#	c #0000FF",
"$	c #00C300",
"%	c #0000C7",
"&	c #000086",
"*	c #000000",
"=	c #FFFF00",
"-	c #C7C300",
"            .......             ",
"          ..++++++@..           ",
"         .++++++++###.          ",
"        .#++++++$@####.         ",
"       .##+++++++$@####.        ",
"      .###@++++++$@#####.       ",
"      .$###+++$$+@#####+.       ",
"     .#$###@+$@#$######$#.      ",
"     .$@####@+##########@.      ",
"     .%######@$@########%.      ",
"     .%%########@######%%.      ",
"     .%%%#######+$$###%%%.      ",
"     .&%%%#####$+++$%%%%&.      ",
"     .&$%%%%%##@$++$#%%%&.      ",
"      .&$@%%%%%%&$$@%%%&.       ",
"      .&&@%%%%%%@$@%%%&&.       ",
"       .&&%%%%%%$@%%%&&.        ",
"     *****&&&%%@@%%&&&*****     ",
"   **=====**&&&&&&&&**=====**   ",
"  *=========*&&&&&&*=========*  ",
" *===========*....*===========* ",
" *=========*=*    *==*=====*==* ",
"*-========**==*  *==**=====**==*",
"*-========**==*  *==*=======*==*",
"*-============*  *=============*",
"*-============*  *=============*",
"*-=======*====*  *===*=====.===*",
" *-======*****    *-==*===.===* ",
" *-======*        *-===*..===-* ",
"  *--====-*        *--=====--*  ",
"   **-----*         **-----**   ",
"     *****            *****     "};
