/* XPM */
static char * icon-mail-help_xpm[] = {
"32 32 3 1",
" 	c #BFBFBFBFBFBF s backgroundToolBarColor",
".	c #000000000000",
"X	c #FFFFFFFFFFFF",
"                                ",
"                                ",
"                                ",
"                                ",
"                                ",
"              ....              ",
"             ..  ..             ",
"             ..  ..             ",
"                ..              ",
"               ..               ",
"   ..........................   ",
"   ...XXXXXXXXXXXXXXXXXXX..X.   ",
"   .XX..XXXXXXX..XXXXXX..XXX.   ",
"   .XXXX..XXXXX..XXXX..XXXXX.   ",
"   .XXXXXX..XXXXXXX..XXXXXXX.   ",
"   .XXXXXXXX..XXX..XXXXXXXXX.   ",
"   .XXXXXXX.XX...X.XXXXXXXXX.   ",
"   .XXXXX..XXXXXXXX..XXXXXXX.   ",
"   .XXXX.XXXXXXXXXXXX.XXXXXX.   ",
"   .XXX.XXXXXXXXXXXXXX.XXXXX.   ",
"   .X..XXXXXXXXXXXXXXXX..XXX.   ",
"   ..XXXXXXXXXXXXXXXXXXXX.XX.   ",
"   .XXXXXXXXXXXXXXXXXXXXXX...   ",
"   ..........................   ",
"                                ",
"                                ",
"                                ",
"                                ",
"                                ",
"                                ",
"                                ",
"                                "};
