/* XPM */
static char * icon-mail-spell_xpm[] = {
"32 32 3 1",
" 	c #BFBFBFBFBFBF s backgroundToolBarColor",
".	c #000000000000",
"X	c #FFFFFFFFFFFF",
"                                ",
"                  ...           ",
"                 .XXX..         ",
"                .XXXXXX..       ",
"            ... .XXXXXXXX.      ",
"          ..XXX.XX.XXXXXX.      ",
"        ..XXXX.XXX.XXXXX.       ",
"      ..XXXXXX.XX.XXXXX.        ",
"    ..XXXXXXX.XX.XXXXXX.        ",
"   .XXXXXXXX.XXX.XXXXX...       ",
" ..XX..XX.XX.XXXXXXXX.XXX..     ",
" ...XXXXXXX.XX.XXXXX.XX..X.     ",
" .XX..XXXX.XXX.XXXXX...XXX.     ",
" .XXXX..XX.XX.XXXXX..XXXXX.     ",
" .XXXXXX...XXXXXX..XXXXXXX.   ..",
" .XXXXXXXX..XXX..XXXXXXXX ....X ",
" .XXXXXXX.XX...X.XXXXXX  ...X   ",
" .XXXXX..XXXX XXX..XXX ....X    ",
" .XXXX.XXXXX . XXXX.  ... .     ",
" .XXX.XXXX  ... XXX .... X.     ",
" .X..XXXX ...... X .... XX.     ",
" ..XXXXXXX ...... .... .XX.     ",
" .XXXXXXXXX ......... XX...     ",
" ..........................     ",
"             X.....X            ",
"              X...              ",
"               X.X              ",
"                                ",
"                                ",
"                                ",
"                                ",
"                                "};
