/* XPM */
static char * switch_printer_xpm[] = {
"32 32 23 1",
" 	c None",
".	c #000000",
"+	c #000088",
"@	c #880000",
"#	c #CCCC00",
"$	c #CC6600",
"%	c #CC9900",
"&	c #AA0000",
"*	c #DDDDDD",
"=	c #AAAAAA",
"-	c #777777",
";	c #FFFFCC",
">	c #FFFFFF",
",	c #888888",
"'	c #C0C0C0",
")	c #A0A0A4",
"!	c #808080",
"~	c #585858",
"{	c #00C000",
"]	c #303030",
"^	c #00C0C0",
"/	c #008080",
"(	c #996600",
"                                ",
"              ....              ",
"             .++++.             ",
"            .....++             ",
"            .@..#.+.            ",
"           $$%@...+.            ",
"          $$%$$@....            ",
"         $$$&&@......           ",
"           @@@........          ",
"          ...*=--==.+..         ",
"         .+.*     *=.++.        ",
"       ..+.-;*   ***=..+..      ",
"    ...+...=>>  *;;* -..++..    ",
"   ........*>>* ;;;;*=-......   ",
"         .,*>>>;;;;;* -.        ",
"          ,*>>>;;..;* -         ",
"          ,*;;>;.>>.. -         ",
"          ,*;;;;.>>>>..         ",
"          ,*;;..>>>>>>.         ",
"          ,*...'>>>>>.-         ",
"          ..')!!!>>>~!.         ",
"        ..')'{')!!!]').         ",
"        .>')'{'~')!!!'.         ",
"        .'>>'~^^/~'''!!.        ",
"        ..''>>'!^'''!!!.        ",
"         ...''>>''!!!!.         ",
"         .))..'''!!!...@        ",
"          ..))..'!..~~.@        ",
"          (%..))..~~..@         ",
"          (%%(..)~..            ",
"           ((   ..              ",
"                                "};
