0
SECTION
2
HEADER
  9
$ACADVER
  1
AC1006
9
$LIMCHECK
70
1
9
$LIMMIN
10
0
20
0
9
$LIMMAX
10
270.933000
20
198.543000
9
$EXTMIN
10
0
20
0
9
$EXTMAX
10
270.933000
20
198.543000
9
$CLAYER
8
0
9
$LUNITS
70
2
9
$LUPREC
70
1
9
$AUNITS
70
0
9
$AUPREC
70
2
9
$TEXTSTYLE
7
STANDARD
0
ENDSEC
0
SECTION
2
TABLES
0
TABLE
2
LTYPE
70
5
0
LTYPE
2
CONTINUOUS
70
64
3
Solid line
72
65
73
0
40
0
0
LTYPE
2
DASHED
70
64
3
Dashed line
72
65
73
2
40
15
49
10
49
-5
0
LTYPE
2
HIDDEN
70
64
3
Hidden line
72
65
73
2
40
10
49
5
49
-5
0
LTYPE
2
CENTER
70
64
3
Center line
72
65
73
4
40
35
49
20
49
-5
49
5
49
-5
0
LTYPE
2
PHANTOM
70
64
3
Phantom line
72
65
73
6
40
50
49
25
49
-5
49
5
49
-5
49
5
49
-5
0
LTYPE
2
DOT
70
64
3
Dot line
72
65
73
2
40
5
49
0
49
-5
0
LTYPE
2
DASHDOT
70
64
3
Dashdot line
72
65
73
4
40
20
49
10
49
-5
49
0
49
-5
0
LTYPE
2
BORDER
70
64
3
Border line
72
65
73
6
40
35
49
10
49
-5
49
10
49
-5
49
0
49
-5
0
LTYPE
2
DIVIDE
70
64
3
Divide Line
72
65
73
6
40
25
49
10
49
-5
49
0
49
-5
49
0
49
-5
0
ENDTAB
0
TABLE
2
STYLE
70
5
0
STYLE
2
ROMAN
3
romanc.shx
70
64
71
0
40
0
41
1
42
0
50
0
0
STYLE
2
ROMAN_BOLD
3
romant.shx
70
64
71
0
40
0
41
1
42
0
50
0
0
STYLE
2
ROMANTIC
3
rom_____.pfb
70
64
71
0
40
0
41
1
42
0
50
0
0
STYLE
2
ROMANTIC_BOLD
3
romb____.pfb
70
64
71
0
40
0
41
1
42
0
50
0
0
STYLE
2
SANSSERIF
3
sas_____.pfb
70
64
71
0
40
0
41
1
42
0
50
0
0
STYLE
2
SANSSERIF_BOLD
3
sasb____.pfb
70
64
71
0
40
0
41
1
42
0
50
0
0
ENDTAB
0
ENDSEC
0
SECTION
2
ENTITIES
0
POLYLINE
8
0
6
CONTINUOUS
62
214
66
1
40
0.134408
41
0.134408
0
VERTEX
8
0
10
21.166664
20
21.166664
0
VERTEX
8
0
10
21.166664
20
42.333328
0
VERTEX
8
0
10
42.333328
20
42.333328
0
VERTEX
8
0
10
42.333328
20
21.166664
0
VERTEX
8
0
10
21.166664
20
21.166664
0
SEQEND
0
POLYLINE
8
0
6
CONTINUOUS
62
214
66
1
40
0.134408
41
0.134408
0
VERTEX
8
0
10
63.499993
20
52.916660
0
VERTEX
8
0
10
67.733325
20
57.149993
0
VERTEX
8
0
10
74.083325
20
55.033327
0
VERTEX
8
0
10
71.966658
20
42.333328
0
VERTEX
8
0
10
65.616659
20
44.449995
0
SEQEND
0
POLYLINE
8
0
6
CONTINUOUS
62
10
66
1
40
0.134408
41
0.134408
0
VERTEX
8
0
10
0.000000
20
0.000000
0
VERTEX
8
0
10
270.509968
20
198.119977
0
SEQEND
0
POLYLINE
8
0
6
DOT
62
170
66
1
40
0.448028
41
0.448028
0
VERTEX
8
0
10
0.000000
20
198.119977
0
VERTEX
8
0
10
270.509968
20
0.000000
0
SEQEND
0
POLYLINE
8
0
6
CONTINUOUS
62
210
66
1
70
128
40
0.211667
41
0.211667
0
VERTEX
8
0
10
249.554971
20
21.166664
42
0.000000
0
VERTEX
8
0
10
256.357806
20
29.273967
42
0.051612
0
VERTEX
8
0
10
254.553173
20
30.495378
42
0.051612
0
VERTEX
8
0
10
252.536640
20
31.321297
42
0.051612
0
VERTEX
8
0
10
250.393699
20
31.716709
42
0.051612
0
VERTEX
8
0
10
248.215201
20
31.664851
42
0.051612
0
VERTEX
8
0
10
246.093502
20
31.167922
42
0.051612
0
VERTEX
8
0
10
244.118552
20
30.246988
42
0.051612
0
VERTEX
8
0
10
242.374080
20
28.941092
42
0.051612
0
VERTEX
8
0
10
240.934043
20
27.305599
42
0.051612
0
VERTEX
8
0
10
239.859491
20
25.409845
42
0.051612
0
VERTEX
8
0
10
239.195980
20
23.334201
42
0.051612
0
VERTEX
8
0
10
238.971639
20
21.166664
42
0.000000
0
VERTEX
8
0
10
249.554971
20
21.166664
42
0.000000
  0
SEQEND
0
POLYLINE
8
0
6
CONTINUOUS
62
 10
66
1
70
128
40
0.211667
41
0.211667
0
VERTEX
8
0
10
27.969499
20
29.273967
42
0.051612
0
VERTEX
8
0
10
26.164866
20
30.495378
42
0.051612
0
VERTEX
8
0
10
24.148333
20
31.321297
42
0.051612
0
VERTEX
8
0
10
22.005393
20
31.716709
42
0.051612
0
VERTEX
8
0
10
19.826894
20
31.664851
42
0.051612
0
VERTEX
8
0
10
17.705195
20
31.167922
42
0.051612
0
VERTEX
8
0
10
15.730246
20
30.246988
42
0.051612
0
VERTEX
8
0
10
13.985774
20
28.941092
42
0.051612
0
VERTEX
8
0
10
12.545736
20
27.305599
42
0.051612
0
VERTEX
8
0
10
11.471184
20
25.409845
42
0.051612
0
VERTEX
8
0
10
10.807673
20
23.334201
42
0.051612
0
VERTEX
8
0
10
10.583332
20
21.166664
42
0.000000
0
SEQEND
0
HATCH
8
0
62
50
10
0.0
20
0.0
30
0.0
210
0.0
220
0.0
230
1.0
2
SOLID
70
1
71
0
91
1
92
2
72
1
73
1
93
5
10
114.088320
20
77.893324
10
114.088320
20
120.226653
10
156.421648
20
120.226653
10
156.421648
20
77.893324
10
114.088320
20
77.893324
97
0
75
0
76
1
0
POLYLINE
8
0
6
CONTINUOUS
62
10
66
1
40
0.044803
41
0.044803
0
VERTEX
8
0
10
113.029987
20
25.399997
0
VERTEX
8
0
10
165.523314
20
169.544980
0
VERTEX
8
0
10
157.691648
20
172.508313
0
VERTEX
8
0
10
105.198321
20
28.151663
0
VERTEX
8
0
10
113.029987
20
25.399997
0
SEQEND
0
TEXT
8
0
7
ROMANTIC_BOLD
62
170
10
135.254984
20
99.059988
11
135.254984
21
99.059988
40
27.000000
50
70.000000
51
  0
72
  1
73
  2
1
cdMin Draw (згн)
0
HATCH
8
0
62
170
10
0.0
20
0.0
30
0.0
210
0.0
220
0.0
230
1.0
2
SOLID
70
1
71
0
91
1
92
2
72
1
73
1
93
5
10
39.635315
20
79.247991
10
39.635315
20
99.059988
10
59.452973
20
99.059988
10
59.452973
20
79.247991
10
39.635315
20
79.247991
97
0
75
0
76
1
0
POLYLINE
8
0
6
CONTINUOUS
62
10
66
1
40
0.044803
41
0.044803
0
VERTEX
8
0
10
39.635315
20
79.247991
0
VERTEX
8
0
10
59.452973
20
99.059988
0
SEQEND
0
POLYLINE
8
0
6
CONTINUOUS
62
10
66
1
40
0.044803
41
0.044803
0
VERTEX
8
0
10
37.653549
20
60.674243
0
VERTEX
8
0
10
61.434738
20
60.674243
0
VERTEX
8
0
10
61.434738
20
78.009741
0
VERTEX
8
0
10
37.653549
20
78.009741
0
VERTEX
8
0
10
37.653549
20
60.674243
0
SEQEND
0
HATCH
8
0
62
90
10
0.0
20
0.0
30
0.0
210
0.0
220
0.0
230
1.0
2
SOLID
70
1
71
0
91
1
92
2
72
1
73
1
93
82
10
177.588313
20
99.059988
10
183.938312
20
109.643321
10
183.938312
20
109.643321
10
188.171645
20
109.643321
10
188.171645
20
109.643321
10
189.653311
20
112.606654
10
191.134978
20
115.358320
10
192.404978
20
118.109986
10
193.674977
20
120.438319
10
194.944977
20
122.766652
10
196.214977
20
124.883319
10
197.273310
20
126.788319
10
198.331644
20
128.693318
10
199.178310
20
130.174985
10
200.236643
20
131.444985
10
201.083310
20
132.714985
10
201.718310
20
133.561651
10
202.353310
20
134.196651
10
202.988310
20
134.831651
10
203.623310
20
135.043318
10
204.046643
20
134.831651
10
204.469976
20
134.619984
10
204.681643
20
133.984984
10
204.893309
20
133.349984
10
205.104976
20
132.079985
10
205.104976
20
130.809985
10
205.104976
20
130.809985
10
205.104976
20
129.751652
10
205.104976
20
128.693318
10
204.893309
20
127.846652
10
204.893309
20
126.788319
10
204.893309
20
125.729985
10
204.681643
20
124.671652
10
204.681643
20
123.824986
10
204.681643
20
122.766652
10
204.681643
20
121.919986
10
204.681643
20
120.861653
10
204.681643
20
120.014986
10
204.893309
20
119.168319
10
205.104976
20
118.321653
10
205.316643
20
117.474986
10
205.739976
20
116.628320
10
206.163309
20
115.781653
10
206.798309
20
115.146653
10
207.433309
20
114.511653
10
208.279976
20
113.876653
10
209.126642
20
113.241653
10
210.184975
20
112.606654
10
211.454975
20
111.971654
10
212.724975
20
111.548320
10
214.418308
20
111.124987
10
216.111641
20
110.701654
10
218.016641
20
110.489987
10
219.921641
20
110.066654
10
222.249974
20
109.854987
10
224.789974
20
109.854987
10
227.541640
20
109.643321
10
230.504973
20
109.643321
10
230.504973
20
109.643321
10
230.504973
20
88.476656
10
230.504973
20
88.476656
10
217.169975
20
93.768322
10
215.476642
20
92.709989
10
213.783308
20
91.651656
10
211.666642
20
90.804989
10
209.549976
20
89.958323
10
207.009976
20
89.323323
10
204.469976
20
88.899990
10
201.929976
20
88.688323
10
199.178310
20
88.476656
10
196.426644
20
88.476656
10
193.674977
20
88.688323
10
191.134978
20
89.111656
10
188.594978
20
89.746656
10
186.478312
20
90.381656
10
184.361645
20
91.439989
10
182.456645
20
92.286656
10
180.763312
20
93.344989
10
179.493312
20
94.614989
10
178.646646
20
95.884989
10
178.011646
20
97.154989
10
177.588313
20
99.059988
97
0
75
0
76
1
0
POINT
8
0
62
10
10
2.116666
 20
99.059988
0
POINT
8
0
62
90
10
2.328333
 20
99.271655
0
POINT
8
0
62
170
10
2.540000
 20
99.483322
0
POLYLINE
8
0
6
CONTINUOUS
62
10
66
1
40
0.044803
41
0.044803
0
VERTEX
8
0
10
39.158329
20
42.333328
0
VERTEX
8
0
10
45.508328
20
42.333328
0
SEQEND
0
POLYLINE
8
0
6
CONTINUOUS
62
10
66
1
40
0.044803
41
0.044803
0
VERTEX
8
0
10
42.333328
20
39.158329
0
VERTEX
8
0
10
42.333328
20
45.508328
0
SEQEND
0
POLYLINE
8
0
6
CONTINUOUS
62
 10
66
1
70
128
40
0.211667
41
0.211667
0
VERTEX
8
0
10
231.563306
20
42.333328
42
0.049127
0
VERTEX
8
0
10
231.502300
20
42.952740
42
0.049127
0
VERTEX
8
0
10
231.321624
20
43.548348
42
0.049127
0
VERTEX
8
0
10
231.028222
20
44.097264
42
0.049127
0
VERTEX
8
0
10
230.633370
20
44.578392
42
0.049127
0
VERTEX
8
0
10
230.152242
20
44.973244
42
0.049127
0
VERTEX
8
0
10
229.603326
20
45.266646
42
0.049127
0
VERTEX
8
0
10
229.007718
20
45.447321
42
0.049127
0
VERTEX
8
0
10
228.388307
20
45.508328
42
0.049127
0
VERTEX
8
0
10
227.768895
20
45.447321
42
0.049127
0
VERTEX
8
0
10
227.173287
20
45.266646
42
0.049127
0
VERTEX
8
0
10
226.624371
20
44.973244
42
0.049127
0
VERTEX
8
0
10
226.143243
20
44.578392
42
0.049127
0
VERTEX
8
0
10
225.748391
20
44.097264
42
0.049127
0
VERTEX
8
0
10
225.454990
20
43.548348
42
0.049127
0
VERTEX
8
0
10
225.274314
20
42.952740
42
0.049127
0
VERTEX
8
0
10
225.213307
20
42.333328
42
0.049127
0
VERTEX
8
0
10
225.274314
20
41.713917
42
0.049127
0
VERTEX
8
0
10
225.454990
20
41.118309
42
0.049127
0
VERTEX
8
0
10
225.748391
20
40.569393
42
0.049127
0
VERTEX
8
0
10
226.143243
20
40.088265
42
0.049127
0
VERTEX
8
0
10
226.624371
20
39.693413
42
0.049127
0
VERTEX
8
0
10
227.173287
20
39.400011
42
0.049127
0
VERTEX
8
0
10
227.768895
20
39.219335
42
0.049127
0
VERTEX
8
0
10
228.388307
20
39.158329
42
0.049127
0
VERTEX
8
0
10
229.007718
20
39.219335
42
0.049127
0
VERTEX
8
0
10
229.603326
20
39.400011
42
0.049127
0
VERTEX
8
0
10
230.152242
20
39.693413
42
0.049127
0
VERTEX
8
0
10
230.633370
20
40.088265
42
0.049127
0
VERTEX
8
0
10
231.028222
20
40.569393
42
0.049127
0
VERTEX
8
0
10
231.321624
20
41.118309
42
0.049127
0
VERTEX
8
0
10
231.502300
20
41.713917
42
0.049127
0
VERTEX
8
0
10
231.563306
20
42.333328
42
0.000000
  0
SEQEND
0
POLYLINE
8
0
6
CONTINUOUS
62
 10
66
1
70
128
40
0.211667
41
0.211667
0
VERTEX
8
0
10
45.508328
20
155.998315
42
0.049127
0
VERTEX
8
0
10
45.447321
20
156.617727
42
0.049127
0
VERTEX
8
0
10
45.266646
20
157.213335
42
0.049127
0
VERTEX
8
0
10
44.973244
20
157.762250
42
0.049127
0
VERTEX
8
0
10
44.578392
20
158.243379
42
0.049127
0
VERTEX
8
0
10
44.097264
20
158.638231
42
0.049127
0
VERTEX
8
0
10
43.548348
20
158.931632
42
0.049127
0
VERTEX
8
0
10
42.952740
20
159.112308
42
0.049127
0
VERTEX
8
0
10
42.333328
20
159.173315
42
0.049127
0
VERTEX
8
0
10
41.713917
20
159.112308
42
0.049127
0
VERTEX
8
0
10
41.118309
20
158.931632
42
0.049127
0
VERTEX
8
0
10
40.569393
20
158.638231
42
0.049127
0
VERTEX
8
0
10
40.088265
20
158.243379
42
0.049127
0
VERTEX
8
0
10
39.693413
20
157.762250
42
0.049127
0
VERTEX
8
0
10
39.400011
20
157.213335
42
0.049127
0
VERTEX
8
0
10
39.219335
20
156.617727
42
0.049127
0
VERTEX
8
0
10
39.158329
20
155.998315
42
0.049127
0
VERTEX
8
0
10
39.219335
20
155.378903
42
0.049127
0
VERTEX
8
0
10
39.400011
20
154.783295
42
0.049127
0
VERTEX
8
0
10
39.693413
20
154.234380
42
0.049127
0
VERTEX
8
0
10
40.088265
20
153.753251
42
0.049127
0
VERTEX
8
0
10
40.569393
20
153.358399
42
0.049127
0
VERTEX
8
0
10
41.118309
20
153.064998
42
0.049127
0
VERTEX
8
0
10
41.713917
20
152.884322
42
0.049127
0
VERTEX
8
0
10
42.333328
20
152.823316
42
0.049127
0
VERTEX
8
0
10
42.952740
20
152.884322
42
0.049127
0
VERTEX
8
0
10
43.548348
20
153.064998
42
0.049127
0
VERTEX
8
0
10
44.097264
20
153.358399
42
0.049127
0
VERTEX
8
0
10
44.578392
20
153.753251
42
0.049127
0
VERTEX
8
0
10
44.973244
20
154.234380
42
0.049127
0
VERTEX
8
0
10
45.266646
20
154.783295
42
0.049127
0
VERTEX
8
0
10
45.447321
20
155.378903
42
0.049127
0
VERTEX
8
0
10
45.508328
20
155.998315
42
0.000000
0
SEQEND
0
HATCH
8
0
62
10
10
0.0
20
0.0
30
0.0
210
0.0
220
0.0
230
1.0
2
SOLID
70
1
71
0
91
1
92
2
72
1
73
1
93
5
10
225.213307
20
155.998315
10
228.388307
20
159.173315
10
231.563306
20
155.998315
10
228.388307
20
152.823316
10
225.213307
20
155.998315
97
0
75
0
76
1
0
POLYLINE
8
0
6
CONTINUOUS
62
10
66
1
40
0.044803
41
0.044803
0
VERTEX
8
0
10
0.000000
20
2.116666
0
VERTEX
8
0
10
270.721635
20
2.116666
0
SEQEND
0
POLYLINE
8
0
6
DASHED
62
10
66
1
40
0.044803
41
0.044803
0
VERTEX
8
0
10
0.000000
20
4.233333
0
VERTEX
8
0
10
270.721635
20
4.233333
0
SEQEND
0
POLYLINE
8
0
6
DOT
62
10
66
1
40
0.044803
41
0.044803
0
VERTEX
8
0
10
0.000000
20
6.349999
0
VERTEX
8
0
10
270.721635
20
6.349999
0
SEQEND
0
POLYLINE
8
0
6
DASHDOT
62
10
66
1
40
0.044803
41
0.044803
0
VERTEX
8
0
10
0.000000
20
8.466666
0
VERTEX
8
0
10
270.721635
20
8.466666
0
SEQEND
0
POLYLINE
8
0
6
DIVIDE
62
10
66
1
40
0.044803
41
0.044803
0
VERTEX
8
0
10
0.000000
20
10.583332
0
VERTEX
8
0
10
270.721635
20
10.583332
0
SEQEND
0
HATCH
8
0
62
10
10
0.0
20
0.0
30
0.0
210
0.0
220
0.0
230
1.0
2
SOLID
70
1
71
0
91
1
92
2
72
1
73
1
93
5
10
0.000000
20
185.631645
10
0.000000
20
198.331644
10
10.583332
20
198.331644
10
10.583332
20
185.631645
10
0.000000
20
185.631645
97
0
75
0
76
1
0
HATCH
8
0
62
10
10
0.0
20
0.0
30
0.0
210
0.0
220
0.0
230
1.0
2
SOLID
70
1
71
0
91
1
92
2
72
1
73
1
93
5
10
10.583332
20
185.631645
10
10.583332
20
198.331644
10
21.166664
20
198.331644
10
21.166664
20
185.631645
10
10.583332
20
185.631645
97
0
75
0
76
1
0
HATCH
8
0
62
10
10
0.0
20
0.0
30
0.0
210
0.0
220
0.0
230
1.0
2
SOLID
70
1
71
0
91
1
92
2
72
1
73
1
93
5
10
21.166664
20
185.631645
10
21.166664
20
198.331644
10
31.749996
20
198.331644
10
31.749996
20
185.631645
10
21.166664
20
185.631645
97
0
75
0
76
1
0
HATCH
8
0
62
10
10
0.0
20
0.0
30
0.0
210
0.0
220
0.0
230
1.0
2
SOLID
70
1
71
0
91
1
92
2
72
1
73
1
93
5
10
31.749996
20
185.631645
10
31.749996
20
198.331644
10
42.333328
20
198.331644
10
42.333328
20
185.631645
10
31.749996
20
185.631645
97
0
75
0
76
1
0
HATCH
8
0
62
10
10
0.0
20
0.0
30
0.0
210
0.0
220
0.0
230
1.0
2
SOLID
70
1
71
0
91
1
92
2
72
1
73
1
93
5
10
42.333328
20
185.631645
10
42.333328
20
198.331644
10
52.916660
20
198.331644
10
52.916660
20
185.631645
10
42.333328
20
185.631645
97
0
75
0
76
1
0
HATCH
8
0
62
10
10
0.0
20
0.0
30
0.0
210
0.0
220
0.0
230
1.0
2
SOLID
70
1
71
0
91
1
92
2
72
1
73
1
93
5
10
52.916660
20
185.631645
10
52.916660
20
198.331644
10
63.499993
20
198.331644
10
63.499993
20
185.631645
10
52.916660
20
185.631645
97
0
75
0
76
1
0
POLYLINE
8
0
6
DIVIDE
62
10
66
1
40
0.044803
41
0.044803
0
VERTEX
8
0
10
135.254984
20
177.164979
0
VERTEX
8
0
10
145.838316
20
166.581647
0
VERTEX
8
0
10
135.254984
20
155.998315
0
VERTEX
8
0
10
124.671652
20
166.581647
0
VERTEX
8
0
10
135.254984
20
177.164979
0
SEQEND
0
HATCH
8
0
62
10
10
0.0
20
0.0
30
0.0
210
0.0
220
0.0
230
1.0
2
SOLID
70
1
71
0
91
1
92
2
72
1
73
1
93
5
10
21.166664
20
99.059988
10
31.749996
20
109.643321
10
42.333328
20
99.059988
10
31.749996
20
88.476656
10
21.166664
20
99.059988
97
0
75
0
76
1
0
HATCH
8
0
62
10
10
0.0
20
0.0
30
0.0
210
0.0
220
0.0
230
1.0
2
SOLID
70
1
71
0
91
1
92
2
72
1
73
1
93
5
10
249.554971
20
99.059988
10
238.971639
20
109.643321
10
228.388307
20
99.059988
10
238.971639
20
88.476656
10
249.554971
20
99.059988
97
0
75
0
76
1
0
HATCH
8
0
62
10
10
0.0
20
0.0
30
0.0
210
0.0
220
0.0
230
1.0
2
SOLID
70
1
71
0
91
1
92
2
72
1
73
1
93
5
10
135.254984
20
21.166664
10
145.838316
20
31.749996
10
135.254984
20
42.333328
10
124.671652
20
31.749996
10
135.254984
20
21.166664
97
0
75
0
76
1
0
POLYLINE
8
0
6
DIVIDE
62
10
66
1
40
0.044803
41
0.044803
0
VERTEX
8
0
10
21.166664
20
21.166664
0
VERTEX
8
0
10
24.932842
20
28.587399
0
VERTEX
8
0
10
28.277340
20
34.891923
0
VERTEX
8
0
10
31.175354
20
39.956213
0
VERTEX
8
0
10
33.602079
20
43.656245
0
VERTEX
8
0
10
35.532711
20
45.867996
0
VERTEX
8
0
10
36.942444
20
46.467442
0
VERTEX
8
0
10
37.806473
20
45.330561
0
VERTEX
8
0
10
38.099996
20
42.333328
0
VERTEX
8
0
10
38.099996
20
42.333328
0
VERTEX
8
0
10
37.889156
20
38.385249
0
VERTEX
8
0
10
37.603902
20
34.561194
0
VERTEX
8
0
10
37.765132
20
30.985185
0
VERTEX
8
0
10
38.893745
20
27.781247
0
VERTEX
8
0
10
41.510640
20
25.073402
0
VERTEX
8
0
10
46.136713
20
22.985674
0
VERTEX
8
0
10
53.292865
20
21.642087
0
VERTEX
8
0
10
63.499993
20
21.166664
0
SEQEND
0
POLYLINE
8
0
6
CONTINUOUS
62
10
66
1
40
0.089606
41
0.089606
0
VERTEX
8
0
10
37.653549
20
74.542641
0
VERTEX
8
0
10
40.130757
20
64.141343
0
SEQEND
0
POLYLINE
8
0
6
CONTINUOUS
62
10
66
1
40
0.089606
41
0.089606
0
VERTEX
8
0
10
42.607964
20
74.542641
0
VERTEX
8
0
10
40.130757
20
64.141343
0
SEQEND
0
POLYLINE
8
0
6
CONTINUOUS
62
10
66
1
40
0.089606
41
0.089606
0
VERTEX
8
0
10
42.607964
20
74.542641
0
VERTEX
8
0
10
45.085171
20
64.141343
0
SEQEND
0
POLYLINE
8
0
6
CONTINUOUS
62
10
66
1
40
0.089606
41
0.089606
0
VERTEX
8
0
10
47.562378
20
74.542641
0
VERTEX
8
0
10
45.085171
20
64.141343
0
SEQEND
0
POLYLINE
8
0
6
CONTINUOUS
62
10
66
1
40
0.089606
41
0.089606
0
VERTEX
8
0
10
48.553261
20
74.542641
0
VERTEX
8
0
10
48.553261
20
64.141343
0
SEQEND
0
POLYLINE
8
0
6
CONTINUOUS
62
10
66
1
40
0.089606
41
0.089606
0
VERTEX
8
0
10
48.553261
20
74.542641
0
VERTEX
8
0
10
52.021351
20
74.542641
0
VERTEX
8
0
10
53.507675
20
74.047341
0
VERTEX
8
0
10
54.498558
20
73.056741
0
VERTEX
8
0
10
54.994000
20
72.066142
0
VERTEX
8
0
10
55.489441
20
70.580242
0
VERTEX
8
0
10
55.489441
20
68.103742
0
VERTEX
8
0
10
54.994000
20
66.617842
0
VERTEX
8
0
10
54.498558
20
65.627242
0
VERTEX
8
0
10
53.507675
20
64.636642
0
VERTEX
8
0
10
52.021351
20
64.141343
0
VERTEX
8
0
10
48.553261
20
64.141343
0
SEQEND
0
POLYLINE
8
0
6
CONTINUOUS
62
10
66
1
40
0.089606
41
0.089606
0
VERTEX
8
0
10
58.957531
20
74.542641
0
VERTEX
8
0
10
59.452973
20
74.047341
0
VERTEX
8
0
10
59.948414
20
74.542641
0
VERTEX
8
0
10
59.452973
20
75.037941
0
VERTEX
8
0
10
58.957531
20
74.542641
0
SEQEND
0
POLYLINE
8
0
6
CONTINUOUS
62
10
66
1
40
0.089606
41
0.089606
0
VERTEX
8
0
10
59.452973
20
71.075542
0
VERTEX
8
0
10
59.452973
20
62.655443
0
VERTEX
8
0
10
58.957531
20
61.169543
0
VERTEX
8
0
10
57.966648
20
60.674243
0
VERTEX
8
0
10
56.975766
20
60.674243
0
SEQEND
0
ENDSEC
0
EOF
 
