/* XPM */
static char * xpm[] = {
"59 71 56 1",
"         c None",		-- changed, was c #000000
"a        c #2CAECE",
",        c #2C95AE",
"$        c #616959",
"<        c #997555",
"(        c #A1A191",
"l        c #2CA1BA",
"^        c #287989",
"~        c #50AECE",
"-        c #916138",
"=        c #654C30",
"+        c #4C3420",
"b        c #2CC2E2",
"0        c #CEA571",
"'        c #2C8599",
"&        c #2C6975",
"1        c #2C4C50",
"d        c #957D81",
"7        c #30BAE6",
"5        c #AE916D",
"!        c #4C95AE",
"h        c #50A5B6",
"6        c #349DC6",
"f        c #D2AE8D",
"]        c #241C10",
"_        c #918D6D",
"{        c #6D918D",
"@        c #10282C",
">        c #4C7985",
")        c #508D91",
"#        c #2C3434",
"[        c #718969",
"/        c #6D99AA",
"p        c #1C8195",
"2        c #8D8D59",
"n        c #1C6979",
"%        c #2C5965",
".        c #342418",
"*        c #144455",
"e        c #B28959",
"9        c #B6AA71",
"8        c #50C2D6",
"k        c #6DAAAE",
"j        c #1C3840",
":        c #9DB2CA",
"i        c #185969",
"c        c #E2CE8D",
";        c #384038",
"m        c #71A595",
"4        c #AAC6A1",
"g        c #DAC679",
"q        c #081C24",
"|        c #1C201C",
"3        c #AEC6DA",
"o        c #79C2BA",
"}        c #C6D2E2",
"                                                           ",
"                                                           ",
"                                  .+                       ",
"                         @.#$%&&**#=-=                     ",
"                     .;$$$$>>,')!!~{$-=]                   ",
"                   @=$=$=$$^>!,,/~(/>$--#                  ",
"                 #=$=$$$_$$$$!!!!~~:(:(<-_;                ",
"               @==$$=[=$=$[[[$$<,!~::}::-<({|              ",
"              1$$$-$$$$$[2<22_$/~~~~::3~!-<(4$             ",
"             =$=<22<[[2222255<[[>6>~~~~77)-584$            ",
"           .$$$__2<5_<2_99950_2_5((/a~~b77$<5cc9           ",
"          .$<$<<<<<<525909522[[_55$_/~~7~74-<9cc9          ",
"          $<$<<(<(dd<<55555[_2$__<(<((((:7~e-e00c2         ",
"         <$<$dd<(<(d((f(5(529__<5(((f(((_(4(-<000g$        ",
"        =$$$<((<<(((<d0555<(e9__5<(e(5($((hh5-e0000+       ",
"       @$<<dddfdfdf(55d<5<55955_>(<>/((({~8b(<-(8(00       ",
"       ^$$$ddf(dff<fd5<ffd5ff0</a6~~/(/~~a7b8(=ebb8(=      ",
"      i$_<$ddddfd(<5(f<0f(<55(d~~a!~((h77b7778$<!b78(      ",
"      ,[<5<<(fdddd(5f<f0<<((f(<(676~d>~a~7b78~[-<7b7~=     ",
"     j)(5_$$dddd<f((ff<fd<5_<$(>766/$~aa777~8~~-<~77b(     ",
"     ^(5<_$dddd<d<dfdd((_(<[$ha~aa~!6aaaa7777ab$<{77aa=    ",
"     ,5[${_<dd<d<d<<$(>>(({!~a~(!6~a6aaaa7a7777,<<7a77$    ",
"    *k[!l!<d<$<f<(<$${~!mh7aa~~{!aa6a6aaaa7a7777-<a7~aa    ",
"    &{haa/<$<d<fd<<<$~!~(ka~~(/aa~aaa6a7aa8aa8a7$-ha7aa@   ",
"    l)aah_<<d$<d<<$$_7~~hkk/{/!a7a~aa6a6aaa7aa7a)<{aaaai   ",
"    ahaa~_$d<$$<($($kaa~kh~{)h7aaaaa6ah6aaaaaba7!-<7aaa&   ",
"   @aaaaa{_>d/$>d5(/aaaah~ha8aaaaaa6a666aaaa7aaaa=<6aaa^   ",
"   @abbha[<_(!!~hh!h~aaaaaaaaaaalaa6a,aaa6~6aaa7a$<haaa^   ",
"   *abb8hh{$(~aaa~~aa~aa7aabaa8aaaaahal66aahaa~aa$-haa6,   ",
"   iaabaha{_(aaahh~aaaaaabaaaaaaa6a6aaa,,,6aa6aaa$-{la,,   ",
"   *abb8mbm9!aaal(>~aa8aalaaaaaa8aaa,,,aa,a6aa6aa)->a,,'   ",
"   @bbb~mh~hab,6!>haaaaaaaaaaaaaa,aa,a,,,l,,,,aaa$=[l,,^   ",
"   @abbhmabbaa~~h/!aaaablb8aalala,,a,,6,l'66,,,a,,-$6,,n   ",
"    bbb8{8bla~hl~/!aaalalalalaa,lll,,,,,,,,l,l,,,'-$,,,i   ",
"    abbb_~aok((lkkkaaablaalallalll,l,,,',',,l,,l,'=${,'@   ",
"    pbba)h~((_$hhk!hallllalaallll,,,,,lp,p,,,,,,,)=$,''@   ",
"    *bbb~{h[2<^aah,lll8lall,lll,,,6,,,',',',',,,,$=[,p^    ",
"     bbb8kbh(>!hl',lallllllll6,,6,,,,,p,'p'p,',',[=&'^*    ",
"     abbb~~a8k//!){llllllll,l'l'l'lp',''^p'''p'''&=$'^@    ",
"     *bbbbkh~~d/h,!h)lllll,ll,,,,,,',''p^'^^'^^'^$=^^&     ",
"      abbbbh~~k/!~,))l,'6^a'l,,,','p'p>p^^>^^^>^&==^&@     ",
"      nbbbbab~~~a~!)&{',6,,,,,,',p''p'^^^^^^^^^^&=='&      ",
"       abbabba~~!lh!)[[),'','p,p'''^^^^^nn^nnn&n$=1&@      ",
"       @a7babaah!)),,)$$$','^''''p^^^^^n&n&&&n&n$+1*       ",
"        ^abaa!~{hl!l!!$$$['')>'^'^>^^n&&&nn&1n%n=.$        ",
"         lal(({{_{{{),,))$$>&>^^^^^^n&n&n1i1%1&1+;@        ",
"         @aa((0(f<<$>!)>')>^^^&&^&n&&&1%&&*1111$..         ",
"           a)ff(0(5($)!$>''>^^^$&&&&&1n1111&1*1+]          ",
"           @,((<f(f<($$$$^^^^&&n1n&1%1*1*1;*11=.           ",
"            q,{(<d<$$$$($>'^^&&&&&111*11111#1#=            ",
"              ^!!{$$$$$<<$^^^&&&11&1%1#@;@j#j=             ",
"               j,,!>$$$$$$$&^&&i$11;1;#1#1#@.#             ",
"                 i,^>$$$$d$^&&&n%1%1j@;#@#  +              ",
"                   j^^$$$$^%&&%%1111#;1@  .=               ",
"                     jj%>%'%%%%111#@@    #+                ",
"                          j$jj#j@       =.                 ",
"                      q##+.+=++]..+#;+=.                   ",
"                   ;+==+++]+]]+====---0<=                  ",
"                 ===++++;+]+.]]]|+=-<e<000+                ",
"               ]===+++++]+|+]|+.+-=<00000000               ",
"               ===+=++;]++++++++|+=<<0000000-              ",
"              ]==+=++++++++=+++++==-<00fcfgg0              ",
"              ]===++===--$---===-+-=<e00fgf00              ",
"              ]<=+=-=--<-<<<<<-------<e000f0+              ",
"               -<-=-<<<0000e0<------<-<000<=]              ",
"                =0<-<<00000000e0<---0-----=]               ",
"                 ]-0e0<0<e0<<-<-0------+++                 ",
"                    .+-<eee-0-------++]]                   ",
"                        ]].=+++++ ]                        ",
"                                                           ",
"                                                           "};
