<svg width="500" height="500" style="fill:blue" version="1.1" xmlns="http://www.w3.org/2000/svg">
<polygon points="50.278 205.106 54.529 218.191 68.287 218.191 72.538 205.106 61.408 197.020 " />
<polygon points="57.157 226.277 61.408 239.361 75.166 239.361 79.417 226.277 68.287 218.191 " />
<polygon points="79.417 226.277 83.668 239.361 97.426 239.361 101.677 226.277 90.547 218.191 " />
<polygon points="86.296 205.106 90.547 218.191 104.305 218.191 108.556 205.106 97.426 197.020 " />
<polygon points="68.287 192.022 72.538 205.106 86.296 205.106 90.547 192.022 79.417 183.936 " />
<polygon points="68.287 260.532 72.538 273.616 86.296 273.616 90.547 260.532 79.417 252.446 " />
<polygon points="75.166 281.703 79.417 294.787 93.175 294.787 97.426 281.703 86.296 273.616 " />
<polygon points="97.426 281.703 101.677 294.787 115.435 294.787 119.686 281.703 108.556 273.616 " />
<polygon points="104.305 260.532 108.556 273.616 122.314 273.616 126.565 260.532 115.435 252.446 " />
<polygon points="86.296 247.448 90.547 260.532 104.305 260.532 108.556 247.448 97.426 239.361 " />
<polygon points="126.565 260.532 130.816 273.616 144.574 273.616 148.825 260.532 137.695 252.446 " />
<polygon points="133.444 281.703 137.695 294.787 151.453 294.787 155.704 281.703 144.574 273.616 " />
<polygon points="155.704 281.703 159.955 294.787 173.713 294.787 177.964 281.703 166.834 273.616 " />
<polygon points="162.583 260.532 166.834 273.616 180.592 273.616 184.843 260.532 173.713 252.446 " />
<polygon points="144.574 247.448 148.825 260.532 162.583 260.532 166.834 247.448 155.704 239.361 " />
<polygon points="144.574 205.106 148.825 218.191 162.583 218.191 166.834 205.106 155.704 197.020 " />
<polygon points="151.453 226.277 155.704 239.361 169.462 239.361 173.713 226.277 162.583 218.191 " />
<polygon points="173.713 226.277 177.964 239.361 191.722 239.361 195.973 226.277 184.843 218.191 " />
<polygon points="180.592 205.106 184.843 218.191 198.601 218.191 202.852 205.106 191.722 197.020 " />
<polygon points="162.583 192.022 166.834 205.106 180.592 205.106 184.843 192.022 173.713 183.936 " />
<polygon points="97.426 170.851 101.677 183.936 115.435 183.936 119.686 170.851 108.556 162.765 " />
<polygon points="104.305 192.022 108.556 205.106 122.314 205.106 126.565 192.022 115.435 183.936 " />
<polygon points="126.565 192.022 130.816 205.106 144.574 205.106 148.825 192.022 137.695 183.936 " />
<polygon points="133.444 170.851 137.695 183.936 151.453 183.936 155.704 170.851 144.574 162.765 " />
<polygon points="115.435 157.767 119.686 170.851 133.444 170.851 137.695 157.767 126.565 149.681 " />
<polygon points="97.426 350.213 101.677 363.297 115.435 363.297 119.686 350.213 108.556 342.126 " />
<polygon points="104.305 371.384 108.556 384.468 122.314 384.468 126.565 371.384 115.435 363.297 " />
<polygon points="126.565 371.384 130.816 384.468 144.574 384.468 148.825 371.384 137.695 363.297 " />
<polygon points="133.444 350.213 137.695 363.297 151.453 363.297 155.704 350.213 144.574 342.126 " />
<polygon points="115.435 337.129 119.686 350.213 133.444 350.213 137.695 337.129 126.565 329.042 " />
<polygon points="115.435 405.639 119.686 418.723 133.444 418.723 137.695 405.639 126.565 397.552 " />
<polygon points="122.314 426.809 126.565 439.894 140.323 439.894 144.574 426.809 133.444 418.723 " />
<polygon points="144.574 426.809 148.825 439.894 162.583 439.894 166.834 426.809 155.704 418.723 " />
<polygon points="151.453 405.639 155.704 418.723 169.462 418.723 173.713 405.639 162.583 397.552 " />
<polygon points="133.444 392.554 137.695 405.639 151.453 405.639 155.704 392.554 144.574 384.468 " />
<polygon points="173.713 405.639 177.964 418.723 191.722 418.723 195.973 405.639 184.843 397.552 " />
<polygon points="180.592 426.809 184.843 439.894 198.601 439.894 202.852 426.809 191.722 418.723 " />
<polygon points="202.852 426.809 207.103 439.894 220.861 439.894 225.112 426.809 213.982 418.723 " />
<polygon points="209.731 405.639 213.982 418.723 227.740 418.723 231.991 405.639 220.861 397.552 " />
<polygon points="191.722 392.554 195.973 405.639 209.731 405.639 213.982 392.554 202.852 384.468 " />
<polygon points="191.722 350.213 195.973 363.297 209.731 363.297 213.982 350.213 202.852 342.126 " />
<polygon points="198.601 371.384 202.852 384.468 216.610 384.468 220.861 371.384 209.731 363.297 " />
<polygon points="220.861 371.384 225.112 384.468 238.870 384.468 243.121 371.384 231.991 363.297 " />
<polygon points="227.740 350.213 231.991 363.297 245.749 363.297 250.000 350.213 238.870 342.126 " />
<polygon points="209.731 337.129 213.982 350.213 227.740 350.213 231.991 337.129 220.861 329.042 " />
<polygon points="144.574 315.958 148.825 329.042 162.583 329.042 166.834 315.958 155.704 307.871 " />
<polygon points="151.453 337.129 155.704 350.213 169.462 350.213 173.713 337.129 162.583 329.042 " />
<polygon points="173.713 337.129 177.964 350.213 191.722 350.213 195.973 337.129 184.843 329.042 " />
<polygon points="180.592 315.958 184.843 329.042 198.601 329.042 202.852 315.958 191.722 307.871 " />
<polygon points="162.583 302.874 166.834 315.958 180.592 315.958 184.843 302.874 173.713 294.787 " />
<polygon points="250.000 350.213 254.251 363.297 268.009 363.297 272.260 350.213 261.130 342.126 " />
<polygon points="256.879 371.384 261.130 384.468 274.888 384.468 279.139 371.384 268.009 363.297 " />
<polygon points="279.139 371.384 283.390 384.468 297.148 384.468 301.399 371.384 290.269 363.297 " />
<polygon points="286.018 350.213 290.269 363.297 304.027 363.297 308.278 350.213 297.148 342.126 " />
<polygon points="268.009 337.129 272.260 350.213 286.018 350.213 290.269 337.129 279.139 329.042 " />
<polygon points="268.009 405.639 272.260 418.723 286.018 418.723 290.269 405.639 279.139 397.552 " />
<polygon points="274.888 426.809 279.139 439.894 292.897 439.894 297.148 426.809 286.018 418.723 " />
<polygon points="297.148 426.809 301.399 439.894 315.157 439.894 319.408 426.809 308.278 418.723 " />
<polygon points="304.027 405.639 308.278 418.723 322.036 418.723 326.287 405.639 315.157 397.552 " />
<polygon points="286.018 392.554 290.269 405.639 304.027 405.639 308.278 392.554 297.148 384.468 " />
<polygon points="326.287 405.639 330.538 418.723 344.296 418.723 348.547 405.639 337.417 397.552 " />
<polygon points="333.166 426.809 337.417 439.894 351.175 439.894 355.426 426.809 344.296 418.723 " />
<polygon points="355.426 426.809 359.677 439.894 373.435 439.894 377.686 426.809 366.556 418.723 " />
<polygon points="362.305 405.639 366.556 418.723 380.314 418.723 384.565 405.639 373.435 397.552 " />
<polygon points="344.296 392.554 348.547 405.639 362.305 405.639 366.556 392.554 355.426 384.468 " />
<polygon points="344.296 350.213 348.547 363.297 362.305 363.297 366.556 350.213 355.426 342.126 " />
<polygon points="351.175 371.384 355.426 384.468 369.184 384.468 373.435 371.384 362.305 363.297 " />
<polygon points="373.435 371.384 377.686 384.468 391.444 384.468 395.695 371.384 384.565 363.297 " />
<polygon points="380.314 350.213 384.565 363.297 398.323 363.297 402.574 350.213 391.444 342.126 " />
<polygon points="362.305 337.129 366.556 350.213 380.314 350.213 384.565 337.129 373.435 329.042 " />
<polygon points="297.148 315.958 301.399 329.042 315.157 329.042 319.408 315.958 308.278 307.871 " />
<polygon points="304.027 337.129 308.278 350.213 322.036 350.213 326.287 337.129 315.157 329.042 " />
<polygon points="326.287 337.129 330.538 350.213 344.296 350.213 348.547 337.129 337.417 329.042 " />
<polygon points="333.166 315.958 337.417 329.042 351.175 329.042 355.426 315.958 344.296 307.871 " />
<polygon points="315.157 302.874 319.408 315.958 333.166 315.958 337.417 302.874 326.287 294.787 " />
<polygon points="297.148 205.106 301.399 218.191 315.157 218.191 319.408 205.106 308.278 197.020 " />
<polygon points="304.027 226.277 308.278 239.361 322.036 239.361 326.287 226.277 315.157 218.191 " />
<polygon points="326.287 226.277 330.538 239.361 344.296 239.361 348.547 226.277 337.417 218.191 " />
<polygon points="333.166 205.106 337.417 218.191 351.175 218.191 355.426 205.106 344.296 197.020 " />
<polygon points="315.157 192.022 319.408 205.106 333.166 205.106 337.417 192.022 326.287 183.936 " />
<polygon points="315.157 260.532 319.408 273.616 333.166 273.616 337.417 260.532 326.287 252.446 " />
<polygon points="322.036 281.703 326.287 294.787 340.045 294.787 344.296 281.703 333.166 273.616 " />
<polygon points="344.296 281.703 348.547 294.787 362.305 294.787 366.556 281.703 355.426 273.616 " />
<polygon points="351.175 260.532 355.426 273.616 369.184 273.616 373.435 260.532 362.305 252.446 " />
<polygon points="333.166 247.448 337.417 260.532 351.175 260.532 355.426 247.448 344.296 239.361 " />
<polygon points="373.435 260.532 377.686 273.616 391.444 273.616 395.695 260.532 384.565 252.446 " />
<polygon points="380.314 281.703 384.565 294.787 398.323 294.787 402.574 281.703 391.444 273.616 " />
<polygon points="402.574 281.703 406.825 294.787 420.583 294.787 424.834 281.703 413.704 273.616 " />
<polygon points="409.453 260.532 413.704 273.616 427.462 273.616 431.713 260.532 420.583 252.446 " />
<polygon points="391.444 247.448 395.695 260.532 409.453 260.532 413.704 247.448 402.574 239.361 " />
<polygon points="391.444 205.106 395.695 218.191 409.453 218.191 413.704 205.106 402.574 197.020 " />
<polygon points="398.323 226.277 402.574 239.361 416.332 239.361 420.583 226.277 409.453 218.191 " />
<polygon points="420.583 226.277 424.834 239.361 438.592 239.361 442.843 226.277 431.713 218.191 " />
<polygon points="427.462 205.106 431.713 218.191 445.471 218.191 449.722 205.106 438.592 197.020 " />
<polygon points="409.453 192.022 413.704 205.106 427.462 205.106 431.713 192.022 420.583 183.936 " />
<polygon points="344.296 170.851 348.547 183.936 362.305 183.936 366.556 170.851 355.426 162.765 " />
<polygon points="351.175 192.022 355.426 205.106 369.184 205.106 373.435 192.022 362.305 183.936 " />
<polygon points="373.435 192.022 377.686 205.106 391.444 205.106 395.695 192.022 384.565 183.936 " />
<polygon points="380.314 170.851 384.565 183.936 398.323 183.936 402.574 170.851 391.444 162.765 " />
<polygon points="362.305 157.767 366.556 170.851 380.314 170.851 384.565 157.767 373.435 149.681 " />
<polygon points="173.713 115.426 177.964 128.510 191.722 128.510 195.973 115.426 184.843 107.339 " />
<polygon points="180.592 136.596 184.843 149.681 198.601 149.681 202.852 136.596 191.722 128.510 " />
<polygon points="202.852 136.596 207.103 149.681 220.861 149.681 225.112 136.596 213.982 128.510 " />
<polygon points="209.731 115.426 213.982 128.510 227.740 128.510 231.991 115.426 220.861 107.339 " />
<polygon points="191.722 102.341 195.973 115.426 209.731 115.426 213.982 102.341 202.852 94.255 " />
<polygon points="191.722 170.851 195.973 183.936 209.731 183.936 213.982 170.851 202.852 162.765 " />
<polygon points="198.601 192.022 202.852 205.106 216.610 205.106 220.861 192.022 209.731 183.936 " />
<polygon points="220.861 192.022 225.112 205.106 238.870 205.106 243.121 192.022 231.991 183.936 " />
<polygon points="227.740 170.851 231.991 183.936 245.749 183.936 250.000 170.851 238.870 162.765 " />
<polygon points="209.731 157.767 213.982 170.851 227.740 170.851 231.991 157.767 220.861 149.681 " />
<polygon points="250.000 170.851 254.251 183.936 268.009 183.936 272.260 170.851 261.130 162.765 " />
<polygon points="256.879 192.022 261.130 205.106 274.888 205.106 279.139 192.022 268.009 183.936 " />
<polygon points="279.139 192.022 283.390 205.106 297.148 205.106 301.399 192.022 290.269 183.936 " />
<polygon points="286.018 170.851 290.269 183.936 304.027 183.936 308.278 170.851 297.148 162.765 " />
<polygon points="268.009 157.767 272.260 170.851 286.018 170.851 290.269 157.767 279.139 149.681 " />
<polygon points="268.009 115.426 272.260 128.510 286.018 128.510 290.269 115.426 279.139 107.339 " />
<polygon points="274.888 136.596 279.139 149.681 292.897 149.681 297.148 136.596 286.018 128.510 " />
<polygon points="297.148 136.596 301.399 149.681 315.157 149.681 319.408 136.596 308.278 128.510 " />
<polygon points="304.027 115.426 308.278 128.510 322.036 128.510 326.287 115.426 315.157 107.339 " />
<polygon points="286.018 102.341 290.269 115.426 304.027 115.426 308.278 102.341 297.148 94.255 " />
<polygon points="220.861 81.171 225.112 94.255 238.870 94.255 243.121 81.171 231.991 73.084 " />
<polygon points="227.740 102.341 231.991 115.426 245.749 115.426 250.000 102.341 238.870 94.255 " />
<polygon points="250.000 102.341 254.251 115.426 268.009 115.426 272.260 102.341 261.130 94.255 " />
<polygon points="256.879 81.171 261.130 94.255 274.888 94.255 279.139 81.171 268.009 73.084 " />
<polygon points="238.870 68.087 243.121 81.171 256.879 81.171 261.130 68.087 250.000 60.000 " />
</svg>
